<?xml version="1.0" encoding="UTF-8" standalone="no"?>
<!DOCTYPE svg PUBLIC "-//W3C//DTD SVG 1.1//EN"
 "http://www.w3.org/Graphics/SVG/1.1/DTD/svg11.dtd">
<!-- Generated by graphviz version 2.50.0 (0)
 -->
<!-- Title: Tree Pages: 1 -->
<svg width="416pt" height="192pt"
 viewBox="0.00 0.00 416.00 192.00" xmlns="http://www.w3.org/2000/svg" xmlns:xlink="http://www.w3.org/1999/xlink">
<g id="graph0" class="graph" transform="scale(1 1) rotate(0) translate(4 188)">
<title>Tree</title>
<polygon fill="white" stroke="transparent" points="-4,4 -4,-188 412,-188 412,4 -4,4"/>
<!-- 0 -->
<g id="node1" class="node">
<title>0</title>
<polygon fill="none" stroke="black" points="266.5,-184 141.5,-184 141.5,-146 266.5,-146 266.5,-184"/>
<text text-anchor="middle" x="204" y="-168.8" font-family="Helvetica,sans-Serif" font-size="14.00">education &lt;= 12.5</text>
<text text-anchor="middle" x="204" y="-153.8" font-family="Helvetica,sans-Serif" font-size="14.00">class = 0.0</text>
</g>
<!-- 1 -->
<g id="node2" class="node">
<title>1</title>
<polygon fill="none" stroke="black" points="189.5,-110 66.5,-110 66.5,-72 189.5,-72 189.5,-110"/>
<text text-anchor="middle" x="128" y="-94.8" font-family="Helvetica,sans-Serif" font-size="14.00">x0_Private &lt;= 0.5</text>
<text text-anchor="middle" x="128" y="-79.8" font-family="Helvetica,sans-Serif" font-size="14.00">class = 0.0</text>
</g>
<!-- 0&#45;&gt;1 -->
<g id="edge1" class="edge">
<title>0&#45;&gt;1</title>
<path fill="none" stroke="black" d="M184.82,-145.83C175.64,-137.13 164.5,-126.58 154.52,-117.13"/>
<polygon fill="black" stroke="black" points="156.84,-114.5 147.17,-110.16 152.02,-119.58 156.84,-114.5"/>
<text text-anchor="middle" x="147.85" y="-131.45" font-family="Helvetica,sans-Serif" font-size="14.00">True</text>
</g>
<!-- 4 -->
<g id="node5" class="node">
<title>4</title>
<polygon fill="none" stroke="black" points="352.5,-110 207.5,-110 207.5,-72 352.5,-72 352.5,-110"/>
<text text-anchor="middle" x="280" y="-94.8" font-family="Helvetica,sans-Serif" font-size="14.00">x3_Unmarried &lt;= 0.5</text>
<text text-anchor="middle" x="280" y="-79.8" font-family="Helvetica,sans-Serif" font-size="14.00">class = 0.0</text>
</g>
<!-- 0&#45;&gt;4 -->
<g id="edge4" class="edge">
<title>0&#45;&gt;4</title>
<path fill="none" stroke="black" d="M223.18,-145.83C232.36,-137.13 243.5,-126.58 253.48,-117.13"/>
<polygon fill="black" stroke="black" points="255.98,-119.58 260.83,-110.16 251.16,-114.5 255.98,-119.58"/>
<text text-anchor="middle" x="260.15" y="-131.45" font-family="Helvetica,sans-Serif" font-size="14.00">False</text>
</g>
<!-- 2 -->
<g id="node3" class="node">
<title>2</title>
<polygon fill="none" stroke="black" points="82,-36 0,-36 0,0 82,0 82,-36"/>
<text text-anchor="middle" x="41" y="-14.3" font-family="Helvetica,sans-Serif" font-size="14.00">class = 0.0</text>
</g>
<!-- 1&#45;&gt;2 -->
<g id="edge2" class="edge">
<title>1&#45;&gt;2</title>
<path fill="none" stroke="black" d="M105.6,-71.72C94.63,-62.77 81.31,-51.9 69.62,-42.36"/>
<polygon fill="black" stroke="black" points="71.8,-39.61 61.84,-36 67.37,-45.04 71.8,-39.61"/>
</g>
<!-- 3 -->
<g id="node4" class="node">
<title>3</title>
<polygon fill="none" stroke="black" points="182,-36 100,-36 100,0 182,0 182,-36"/>
<text text-anchor="middle" x="141" y="-14.3" font-family="Helvetica,sans-Serif" font-size="14.00">class = 0.0</text>
</g>
<!-- 1&#45;&gt;3 -->
<g id="edge3" class="edge">
<title>1&#45;&gt;3</title>
<path fill="none" stroke="black" d="M131.35,-71.72C132.78,-63.89 134.48,-54.59 136.06,-45.99"/>
<polygon fill="black" stroke="black" points="139.53,-46.47 137.89,-36 132.64,-45.21 139.53,-46.47"/>
</g>
<!-- 5 -->
<g id="node6" class="node">
<title>5</title>
<polygon fill="none" stroke="black" points="308,-36 226,-36 226,0 308,0 308,-36"/>
<text text-anchor="middle" x="267" y="-14.3" font-family="Helvetica,sans-Serif" font-size="14.00">class = 0.0</text>
</g>
<!-- 4&#45;&gt;5 -->
<g id="edge5" class="edge">
<title>4&#45;&gt;5</title>
<path fill="none" stroke="black" d="M276.65,-71.72C275.22,-63.89 273.52,-54.59 271.94,-45.99"/>
<polygon fill="black" stroke="black" points="275.36,-45.21 270.11,-36 268.47,-46.47 275.36,-45.21"/>
</g>
<!-- 6 -->
<g id="node7" class="node">
<title>6</title>
<polygon fill="none" stroke="black" points="408,-36 326,-36 326,0 408,0 408,-36"/>
<text text-anchor="middle" x="367" y="-14.3" font-family="Helvetica,sans-Serif" font-size="14.00">class = 0.0</text>
</g>
<!-- 4&#45;&gt;6 -->
<g id="edge6" class="edge">
<title>4&#45;&gt;6</title>
<path fill="none" stroke="black" d="M302.4,-71.72C313.37,-62.77 326.69,-51.9 338.38,-42.36"/>
<polygon fill="black" stroke="black" points="340.63,-45.04 346.16,-36 336.2,-39.61 340.63,-45.04"/>
</g>
</g>
</svg>