<?xml version="1.0" encoding="UTF-8" standalone="no"?>
<!DOCTYPE svg PUBLIC "-//W3C//DTD SVG 1.1//EN"
 "http://www.w3.org/Graphics/SVG/1.1/DTD/svg11.dtd">
<!-- Generated by graphviz version 2.50.0 (0)
 -->
<!-- Title: Tree Pages: 1 -->
<svg width="1203pt" height="932pt"
 viewBox="0.00 0.00 1202.50 932.00" xmlns="http://www.w3.org/2000/svg" xmlns:xlink="http://www.w3.org/1999/xlink">
<g id="graph0" class="graph" transform="scale(1 1) rotate(0) translate(4 928)">
<title>Tree</title>
<polygon fill="white" stroke="transparent" points="-4,4 -4,-928 1198.5,-928 1198.5,4 -4,4"/>
<!-- 0 -->
<g id="node1" class="node">
<title>0</title>
<polygon fill="none" stroke="black" points="435.5,-924 325.5,-924 325.5,-886 435.5,-886 435.5,-924"/>
<text text-anchor="middle" x="380.5" y="-908.8" font-family="Helvetica,sans-Serif" font-size="14.00">latitude &lt;= 42.9</text>
<text text-anchor="middle" x="380.5" y="-893.8" font-family="Helvetica,sans-Serif" font-size="14.00">class = Canada</text>
</g>
<!-- 1 -->
<g id="node2" class="node">
<title>1</title>
<polygon fill="none" stroke="black" points="372,-850 247,-850 247,-812 372,-812 372,-850"/>
<text text-anchor="middle" x="309.5" y="-834.8" font-family="Helvetica,sans-Serif" font-size="14.00">latitude &lt;= 42.096</text>
<text text-anchor="middle" x="309.5" y="-819.8" font-family="Helvetica,sans-Serif" font-size="14.00">class = USA</text>
</g>
<!-- 0&#45;&gt;1 -->
<g id="edge1" class="edge">
<title>0&#45;&gt;1</title>
<path fill="none" stroke="black" d="M362.58,-885.83C354.16,-877.28 343.96,-866.94 334.76,-857.62"/>
<polygon fill="black" stroke="black" points="337.17,-855.08 327.66,-850.41 332.19,-859.99 337.17,-855.08"/>
<text text-anchor="middle" x="327.48" y="-871.71" font-family="Helvetica,sans-Serif" font-size="14.00">True</text>
</g>
<!-- 6 -->
<g id="node7" class="node">
<title>6</title>
<polygon fill="none" stroke="black" points="515,-850 390,-850 390,-812 515,-812 515,-850"/>
<text text-anchor="middle" x="452.5" y="-834.8" font-family="Helvetica,sans-Serif" font-size="14.00">latitude &lt;= 55.958</text>
<text text-anchor="middle" x="452.5" y="-819.8" font-family="Helvetica,sans-Serif" font-size="14.00">class = Canada</text>
</g>
<!-- 0&#45;&gt;6 -->
<g id="edge6" class="edge">
<title>0&#45;&gt;6</title>
<path fill="none" stroke="black" d="M398.67,-885.83C407.22,-877.28 417.56,-866.94 426.88,-857.62"/>
<polygon fill="black" stroke="black" points="429.49,-859.96 434.09,-850.41 424.54,-855.01 429.49,-859.96"/>
<text text-anchor="middle" x="434.09" y="-871.71" font-family="Helvetica,sans-Serif" font-size="14.00">False</text>
</g>
<!-- 2 -->
<g id="node3" class="node">
<title>2</title>
<polygon fill="none" stroke="black" points="231,-775 140,-775 140,-739 231,-739 231,-775"/>
<text text-anchor="middle" x="185.5" y="-753.3" font-family="Helvetica,sans-Serif" font-size="14.00">class = USA</text>
</g>
<!-- 1&#45;&gt;2 -->
<g id="edge2" class="edge">
<title>1&#45;&gt;2</title>
<path fill="none" stroke="black" d="M278.21,-811.83C261.71,-802.25 241.34,-790.42 223.89,-780.29"/>
<polygon fill="black" stroke="black" points="225.48,-777.17 215.07,-775.17 221.96,-783.22 225.48,-777.17"/>
</g>
<!-- 3 -->
<g id="node4" class="node">
<title>3</title>
<polygon fill="none" stroke="black" points="374,-776 249,-776 249,-738 374,-738 374,-776"/>
<text text-anchor="middle" x="311.5" y="-760.8" font-family="Helvetica,sans-Serif" font-size="14.00">latitude &lt;= 42.324</text>
<text text-anchor="middle" x="311.5" y="-745.8" font-family="Helvetica,sans-Serif" font-size="14.00">class = USA</text>
</g>
<!-- 1&#45;&gt;3 -->
<g id="edge3" class="edge">
<title>1&#45;&gt;3</title>
<path fill="none" stroke="black" d="M310,-811.83C310.22,-804.13 310.47,-794.97 310.71,-786.42"/>
<polygon fill="black" stroke="black" points="314.21,-786.51 310.99,-776.41 307.21,-786.31 314.21,-786.51"/>
</g>
<!-- 4 -->
<g id="node5" class="node">
<title>4</title>
<polygon fill="none" stroke="black" points="248.5,-701 138.5,-701 138.5,-665 248.5,-665 248.5,-701"/>
<text text-anchor="middle" x="193.5" y="-679.3" font-family="Helvetica,sans-Serif" font-size="14.00">class = Canada</text>
</g>
<!-- 3&#45;&gt;4 -->
<g id="edge4" class="edge">
<title>3&#45;&gt;4</title>
<path fill="none" stroke="black" d="M281.72,-737.83C266.17,-728.34 246.99,-716.64 230.49,-706.57"/>
<polygon fill="black" stroke="black" points="232,-703.39 221.64,-701.17 228.36,-709.37 232,-703.39"/>
</g>
<!-- 5 -->
<g id="node6" class="node">
<title>5</title>
<polygon fill="none" stroke="black" points="358,-701 267,-701 267,-665 358,-665 358,-701"/>
<text text-anchor="middle" x="312.5" y="-679.3" font-family="Helvetica,sans-Serif" font-size="14.00">class = USA</text>
</g>
<!-- 3&#45;&gt;5 -->
<g id="edge5" class="edge">
<title>3&#45;&gt;5</title>
<path fill="none" stroke="black" d="M311.75,-737.83C311.86,-729.89 311.99,-720.41 312.12,-711.63"/>
<polygon fill="black" stroke="black" points="315.62,-711.47 312.26,-701.42 308.62,-711.37 315.62,-711.47"/>
</g>
<!-- 7 -->
<g id="node8" class="node">
<title>7</title>
<polygon fill="none" stroke="black" points="506.5,-776 396.5,-776 396.5,-738 506.5,-738 506.5,-776"/>
<text text-anchor="middle" x="451.5" y="-760.8" font-family="Helvetica,sans-Serif" font-size="14.00">latitude &lt;= 49.0</text>
<text text-anchor="middle" x="451.5" y="-745.8" font-family="Helvetica,sans-Serif" font-size="14.00">class = Canada</text>
</g>
<!-- 6&#45;&gt;7 -->
<g id="edge7" class="edge">
<title>6&#45;&gt;7</title>
<path fill="none" stroke="black" d="M452.25,-811.83C452.14,-804.13 452.01,-794.97 451.89,-786.42"/>
<polygon fill="black" stroke="black" points="455.39,-786.36 451.76,-776.41 448.4,-786.46 455.39,-786.36"/>
</g>
<!-- 56 -->
<g id="node57" class="node">
<title>56</title>
<polygon fill="none" stroke="black" points="616,-775 525,-775 525,-739 616,-739 616,-775"/>
<text text-anchor="middle" x="570.5" y="-753.3" font-family="Helvetica,sans-Serif" font-size="14.00">class = USA</text>
</g>
<!-- 6&#45;&gt;56 -->
<g id="edge56" class="edge">
<title>6&#45;&gt;56</title>
<path fill="none" stroke="black" d="M482.28,-811.83C497.83,-802.34 517.01,-790.64 533.51,-780.57"/>
<polygon fill="black" stroke="black" points="535.64,-783.37 542.36,-775.17 532,-777.39 535.64,-783.37"/>
</g>
<!-- 8 -->
<g id="node9" class="node">
<title>8</title>
<polygon fill="none" stroke="black" points="521,-702 380,-702 380,-664 521,-664 521,-702"/>
<text text-anchor="middle" x="450.5" y="-686.8" font-family="Helvetica,sans-Serif" font-size="14.00">longitude &lt;= &#45;94.582</text>
<text text-anchor="middle" x="450.5" y="-671.8" font-family="Helvetica,sans-Serif" font-size="14.00">class = Canada</text>
</g>
<!-- 7&#45;&gt;8 -->
<g id="edge8" class="edge">
<title>7&#45;&gt;8</title>
<path fill="none" stroke="black" d="M451.25,-737.83C451.14,-730.13 451.01,-720.97 450.89,-712.42"/>
<polygon fill="black" stroke="black" points="454.39,-712.36 450.76,-702.41 447.4,-712.46 454.39,-712.36"/>
</g>
<!-- 55 -->
<g id="node56" class="node">
<title>55</title>
<polygon fill="none" stroke="black" points="649.5,-701 539.5,-701 539.5,-665 649.5,-665 649.5,-701"/>
<text text-anchor="middle" x="594.5" y="-679.3" font-family="Helvetica,sans-Serif" font-size="14.00">class = Canada</text>
</g>
<!-- 7&#45;&gt;55 -->
<g id="edge55" class="edge">
<title>7&#45;&gt;55</title>
<path fill="none" stroke="black" d="M487.58,-737.83C506.96,-728.08 530.97,-715.99 551.33,-705.74"/>
<polygon fill="black" stroke="black" points="553.04,-708.79 560.4,-701.17 549.89,-702.54 553.04,-708.79"/>
</g>
<!-- 9 -->
<g id="node10" class="node">
<title>9</title>
<polygon fill="none" stroke="black" points="444,-628 295,-628 295,-590 444,-590 444,-628"/>
<text text-anchor="middle" x="369.5" y="-612.8" font-family="Helvetica,sans-Serif" font-size="14.00">longitude &lt;= &#45;123.222</text>
<text text-anchor="middle" x="369.5" y="-597.8" font-family="Helvetica,sans-Serif" font-size="14.00">class = USA</text>
</g>
<!-- 8&#45;&gt;9 -->
<g id="edge9" class="edge">
<title>8&#45;&gt;9</title>
<path fill="none" stroke="black" d="M430.06,-663.83C420.18,-655.05 408.17,-644.37 397.45,-634.85"/>
<polygon fill="black" stroke="black" points="399.73,-632.19 389.93,-628.16 395.08,-637.42 399.73,-632.19"/>
</g>
<!-- 12 -->
<g id="node13" class="node">
<title>12</title>
<polygon fill="none" stroke="black" points="603,-628 462,-628 462,-590 603,-590 603,-628"/>
<text text-anchor="middle" x="532.5" y="-612.8" font-family="Helvetica,sans-Serif" font-size="14.00">longitude &lt;= &#45;69.246</text>
<text text-anchor="middle" x="532.5" y="-597.8" font-family="Helvetica,sans-Serif" font-size="14.00">class = Canada</text>
</g>
<!-- 8&#45;&gt;12 -->
<g id="edge12" class="edge">
<title>8&#45;&gt;12</title>
<path fill="none" stroke="black" d="M471.19,-663.83C481.19,-655.05 493.36,-644.37 504.2,-634.85"/>
<polygon fill="black" stroke="black" points="506.61,-637.39 511.81,-628.16 501.99,-632.13 506.61,-637.39"/>
</g>
<!-- 10 -->
<g id="node11" class="node">
<title>10</title>
<polygon fill="none" stroke="black" points="315.5,-553 205.5,-553 205.5,-517 315.5,-517 315.5,-553"/>
<text text-anchor="middle" x="260.5" y="-531.3" font-family="Helvetica,sans-Serif" font-size="14.00">class = Canada</text>
</g>
<!-- 9&#45;&gt;10 -->
<g id="edge10" class="edge">
<title>9&#45;&gt;10</title>
<path fill="none" stroke="black" d="M341.99,-589.83C327.76,-580.43 310.24,-568.86 295.09,-558.85"/>
<polygon fill="black" stroke="black" points="296.77,-555.76 286.5,-553.17 292.91,-561.6 296.77,-555.76"/>
</g>
<!-- 11 -->
<g id="node12" class="node">
<title>11</title>
<polygon fill="none" stroke="black" points="425,-553 334,-553 334,-517 425,-517 425,-553"/>
<text text-anchor="middle" x="379.5" y="-531.3" font-family="Helvetica,sans-Serif" font-size="14.00">class = USA</text>
</g>
<!-- 9&#45;&gt;11 -->
<g id="edge11" class="edge">
<title>9&#45;&gt;11</title>
<path fill="none" stroke="black" d="M372.02,-589.83C373.14,-581.81 374.47,-572.2 375.7,-563.34"/>
<polygon fill="black" stroke="black" points="379.17,-563.8 377.08,-553.42 372.24,-562.84 379.17,-563.8"/>
</g>
<!-- 13 -->
<g id="node14" class="node">
<title>13</title>
<polygon fill="none" stroke="black" points="586,-554 461,-554 461,-516 586,-516 586,-554"/>
<text text-anchor="middle" x="523.5" y="-538.8" font-family="Helvetica,sans-Serif" font-size="14.00">latitude &lt;= 43.093</text>
<text text-anchor="middle" x="523.5" y="-523.8" font-family="Helvetica,sans-Serif" font-size="14.00">class = Canada</text>
</g>
<!-- 12&#45;&gt;13 -->
<g id="edge13" class="edge">
<title>12&#45;&gt;13</title>
<path fill="none" stroke="black" d="M530.23,-589.83C529.27,-582.13 528.12,-572.97 527.05,-564.42"/>
<polygon fill="black" stroke="black" points="530.52,-563.9 525.8,-554.41 523.57,-564.77 530.52,-563.9"/>
</g>
<!-- 36 -->
<g id="node37" class="node">
<title>36</title>
<polygon fill="none" stroke="black" points="808,-554 667,-554 667,-516 808,-516 808,-554"/>
<text text-anchor="middle" x="737.5" y="-538.8" font-family="Helvetica,sans-Serif" font-size="14.00">longitude &lt;= &#45;66.952</text>
<text text-anchor="middle" x="737.5" y="-523.8" font-family="Helvetica,sans-Serif" font-size="14.00">class = Canada</text>
</g>
<!-- 12&#45;&gt;36 -->
<g id="edge36" class="edge">
<title>12&#45;&gt;36</title>
<path fill="none" stroke="black" d="M583.97,-589.92C611.99,-580.08 646.85,-567.84 676.26,-557.51"/>
<polygon fill="black" stroke="black" points="677.74,-560.7 686.01,-554.08 675.42,-554.09 677.74,-560.7"/>
</g>
<!-- 14 -->
<g id="node15" class="node">
<title>14</title>
<polygon fill="none" stroke="black" points="380,-480 255,-480 255,-442 380,-442 380,-480"/>
<text text-anchor="middle" x="317.5" y="-464.8" font-family="Helvetica,sans-Serif" font-size="14.00">latitude &lt;= 43.014</text>
<text text-anchor="middle" x="317.5" y="-449.8" font-family="Helvetica,sans-Serif" font-size="14.00">class = Canada</text>
</g>
<!-- 13&#45;&gt;14 -->
<g id="edge14" class="edge">
<title>13&#45;&gt;14</title>
<path fill="none" stroke="black" d="M471.78,-515.92C443.62,-506.08 408.59,-493.84 379.03,-483.51"/>
<polygon fill="black" stroke="black" points="379.83,-480.08 369.24,-480.08 377.52,-486.69 379.83,-480.08"/>
</g>
<!-- 19 -->
<g id="node20" class="node">
<title>19</title>
<polygon fill="none" stroke="black" points="586,-480 461,-480 461,-442 586,-442 586,-480"/>
<text text-anchor="middle" x="523.5" y="-464.8" font-family="Helvetica,sans-Serif" font-size="14.00">latitude &lt;= 44.992</text>
<text text-anchor="middle" x="523.5" y="-449.8" font-family="Helvetica,sans-Serif" font-size="14.00">class = Canada</text>
</g>
<!-- 13&#45;&gt;19 -->
<g id="edge19" class="edge">
<title>13&#45;&gt;19</title>
<path fill="none" stroke="black" d="M523.5,-515.83C523.5,-508.13 523.5,-498.97 523.5,-490.42"/>
<polygon fill="black" stroke="black" points="527,-490.41 523.5,-480.41 520,-490.41 527,-490.41"/>
</g>
<!-- 15 -->
<g id="node16" class="node">
<title>15</title>
<polygon fill="none" stroke="black" points="235,-406 94,-406 94,-368 235,-368 235,-406"/>
<text text-anchor="middle" x="164.5" y="-390.8" font-family="Helvetica,sans-Serif" font-size="14.00">longitude &lt;= &#45;81.845</text>
<text text-anchor="middle" x="164.5" y="-375.8" font-family="Helvetica,sans-Serif" font-size="14.00">class = Canada</text>
</g>
<!-- 14&#45;&gt;15 -->
<g id="edge15" class="edge">
<title>14&#45;&gt;15</title>
<path fill="none" stroke="black" d="M278.89,-441.83C258.61,-432.29 233.58,-420.51 212.1,-410.4"/>
<polygon fill="black" stroke="black" points="213.37,-407.13 202.83,-406.04 210.39,-413.46 213.37,-407.13"/>
</g>
<!-- 18 -->
<g id="node19" class="node">
<title>18</title>
<polygon fill="none" stroke="black" points="363,-405 272,-405 272,-369 363,-369 363,-405"/>
<text text-anchor="middle" x="317.5" y="-383.3" font-family="Helvetica,sans-Serif" font-size="14.00">class = USA</text>
</g>
<!-- 14&#45;&gt;18 -->
<g id="edge18" class="edge">
<title>14&#45;&gt;18</title>
<path fill="none" stroke="black" d="M317.5,-441.83C317.5,-433.89 317.5,-424.41 317.5,-415.63"/>
<polygon fill="black" stroke="black" points="321,-415.42 317.5,-405.42 314,-415.42 321,-415.42"/>
</g>
<!-- 16 -->
<g id="node17" class="node">
<title>16</title>
<polygon fill="none" stroke="black" points="91,-331 0,-331 0,-295 91,-295 91,-331"/>
<text text-anchor="middle" x="45.5" y="-309.3" font-family="Helvetica,sans-Serif" font-size="14.00">class = USA</text>
</g>
<!-- 15&#45;&gt;16 -->
<g id="edge16" class="edge">
<title>15&#45;&gt;16</title>
<path fill="none" stroke="black" d="M134.47,-367.83C118.79,-358.34 99.44,-346.64 82.81,-336.57"/>
<polygon fill="black" stroke="black" points="84.25,-333.35 73.88,-331.17 80.62,-339.34 84.25,-333.35"/>
</g>
<!-- 17 -->
<g id="node18" class="node">
<title>17</title>
<polygon fill="none" stroke="black" points="219.5,-331 109.5,-331 109.5,-295 219.5,-295 219.5,-331"/>
<text text-anchor="middle" x="164.5" y="-309.3" font-family="Helvetica,sans-Serif" font-size="14.00">class = Canada</text>
</g>
<!-- 15&#45;&gt;17 -->
<g id="edge17" class="edge">
<title>15&#45;&gt;17</title>
<path fill="none" stroke="black" d="M164.5,-367.83C164.5,-359.89 164.5,-350.41 164.5,-341.63"/>
<polygon fill="black" stroke="black" points="168,-341.42 164.5,-331.42 161,-341.42 168,-341.42"/>
</g>
<!-- 20 -->
<g id="node21" class="node">
<title>20</title>
<polygon fill="none" stroke="black" points="519,-406 394,-406 394,-368 519,-368 519,-406"/>
<text text-anchor="middle" x="456.5" y="-390.8" font-family="Helvetica,sans-Serif" font-size="14.00">latitude &lt;= 44.542</text>
<text text-anchor="middle" x="456.5" y="-375.8" font-family="Helvetica,sans-Serif" font-size="14.00">class = Canada</text>
</g>
<!-- 19&#45;&gt;20 -->
<g id="edge20" class="edge">
<title>19&#45;&gt;20</title>
<path fill="none" stroke="black" d="M506.59,-441.83C498.72,-433.37 489.21,-423.15 480.6,-413.9"/>
<polygon fill="black" stroke="black" points="483.01,-411.35 473.63,-406.41 477.88,-416.12 483.01,-411.35"/>
</g>
<!-- 35 -->
<g id="node36" class="node">
<title>35</title>
<polygon fill="none" stroke="black" points="647.5,-405 537.5,-405 537.5,-369 647.5,-369 647.5,-405"/>
<text text-anchor="middle" x="592.5" y="-383.3" font-family="Helvetica,sans-Serif" font-size="14.00">class = Canada</text>
</g>
<!-- 19&#45;&gt;35 -->
<g id="edge35" class="edge">
<title>19&#45;&gt;35</title>
<path fill="none" stroke="black" d="M540.91,-441.83C549.35,-433.02 559.62,-422.31 568.77,-412.76"/>
<polygon fill="black" stroke="black" points="571.42,-415.06 575.81,-405.42 566.36,-410.22 571.42,-415.06"/>
</g>
<!-- 21 -->
<g id="node22" class="node">
<title>21</title>
<polygon fill="none" stroke="black" points="379,-332 238,-332 238,-294 379,-294 379,-332"/>
<text text-anchor="middle" x="308.5" y="-316.8" font-family="Helvetica,sans-Serif" font-size="14.00">longitude &lt;= &#45;79.076</text>
<text text-anchor="middle" x="308.5" y="-301.8" font-family="Helvetica,sans-Serif" font-size="14.00">class = Canada</text>
</g>
<!-- 20&#45;&gt;21 -->
<g id="edge21" class="edge">
<title>20&#45;&gt;21</title>
<path fill="none" stroke="black" d="M419.15,-367.83C399.62,-358.33 375.54,-346.61 354.83,-336.54"/>
<polygon fill="black" stroke="black" points="356.1,-333.27 345.58,-332.04 353.04,-339.56 356.1,-333.27"/>
</g>
<!-- 30 -->
<g id="node31" class="node">
<title>30</title>
<polygon fill="none" stroke="black" points="538,-332 397,-332 397,-294 538,-294 538,-332"/>
<text text-anchor="middle" x="467.5" y="-316.8" font-family="Helvetica,sans-Serif" font-size="14.00">longitude &lt;= &#45;84.392</text>
<text text-anchor="middle" x="467.5" y="-301.8" font-family="Helvetica,sans-Serif" font-size="14.00">class = USA</text>
</g>
<!-- 20&#45;&gt;30 -->
<g id="edge30" class="edge">
<title>20&#45;&gt;30</title>
<path fill="none" stroke="black" d="M459.28,-367.83C460.45,-360.13 461.85,-350.97 463.16,-342.42"/>
<polygon fill="black" stroke="black" points="466.64,-342.83 464.69,-332.41 459.72,-341.77 466.64,-342.83"/>
</g>
<!-- 22 -->
<g id="node23" class="node">
<title>22</title>
<polygon fill="none" stroke="black" points="227.5,-257 117.5,-257 117.5,-221 227.5,-221 227.5,-257"/>
<text text-anchor="middle" x="172.5" y="-235.3" font-family="Helvetica,sans-Serif" font-size="14.00">class = Canada</text>
</g>
<!-- 21&#45;&gt;22 -->
<g id="edge22" class="edge">
<title>21&#45;&gt;22</title>
<path fill="none" stroke="black" d="M274.18,-293.83C255.84,-284.12 233.13,-272.1 213.82,-261.88"/>
<polygon fill="black" stroke="black" points="215.41,-258.76 204.93,-257.17 212.14,-264.94 215.41,-258.76"/>
</g>
<!-- 23 -->
<g id="node24" class="node">
<title>23</title>
<polygon fill="none" stroke="black" points="371,-258 246,-258 246,-220 371,-220 371,-258"/>
<text text-anchor="middle" x="308.5" y="-242.8" font-family="Helvetica,sans-Serif" font-size="14.00">latitude &lt;= 44.168</text>
<text text-anchor="middle" x="308.5" y="-227.8" font-family="Helvetica,sans-Serif" font-size="14.00">class = Canada</text>
</g>
<!-- 21&#45;&gt;23 -->
<g id="edge23" class="edge">
<title>21&#45;&gt;23</title>
<path fill="none" stroke="black" d="M308.5,-293.83C308.5,-286.13 308.5,-276.97 308.5,-268.42"/>
<polygon fill="black" stroke="black" points="312,-268.41 308.5,-258.41 305,-268.41 312,-268.41"/>
</g>
<!-- 24 -->
<g id="node25" class="node">
<title>24</title>
<polygon fill="none" stroke="black" points="241,-184 116,-184 116,-146 241,-146 241,-184"/>
<text text-anchor="middle" x="178.5" y="-168.8" font-family="Helvetica,sans-Serif" font-size="14.00">latitude &lt;= 43.511</text>
<text text-anchor="middle" x="178.5" y="-153.8" font-family="Helvetica,sans-Serif" font-size="14.00">class = USA</text>
</g>
<!-- 23&#45;&gt;24 -->
<g id="edge24" class="edge">
<title>23&#45;&gt;24</title>
<path fill="none" stroke="black" d="M275.7,-219.83C258.91,-210.54 238.3,-199.12 220.38,-189.2"/>
<polygon fill="black" stroke="black" points="221.74,-185.95 211.29,-184.16 218.35,-192.07 221.74,-185.95"/>
</g>
<!-- 29 -->
<g id="node30" class="node">
<title>29</title>
<polygon fill="none" stroke="black" points="369.5,-183 259.5,-183 259.5,-147 369.5,-147 369.5,-183"/>
<text text-anchor="middle" x="314.5" y="-161.3" font-family="Helvetica,sans-Serif" font-size="14.00">class = Canada</text>
</g>
<!-- 23&#45;&gt;29 -->
<g id="edge29" class="edge">
<title>23&#45;&gt;29</title>
<path fill="none" stroke="black" d="M310.01,-219.83C310.68,-211.89 311.47,-202.41 312.2,-193.63"/>
<polygon fill="black" stroke="black" points="315.71,-193.67 313.05,-183.42 308.73,-193.09 315.71,-193.67"/>
</g>
<!-- 25 -->
<g id="node26" class="node">
<title>25</title>
<polygon fill="none" stroke="black" points="161,-109 70,-109 70,-73 161,-73 161,-109"/>
<text text-anchor="middle" x="115.5" y="-87.3" font-family="Helvetica,sans-Serif" font-size="14.00">class = USA</text>
</g>
<!-- 24&#45;&gt;25 -->
<g id="edge25" class="edge">
<title>24&#45;&gt;25</title>
<path fill="none" stroke="black" d="M162.6,-145.83C154.97,-137.11 145.7,-126.52 137.42,-117.05"/>
<polygon fill="black" stroke="black" points="139.96,-114.64 130.74,-109.42 134.69,-119.25 139.96,-114.64"/>
</g>
<!-- 26 -->
<g id="node27" class="node">
<title>26</title>
<polygon fill="none" stroke="black" points="304,-110 179,-110 179,-72 304,-72 304,-110"/>
<text text-anchor="middle" x="241.5" y="-94.8" font-family="Helvetica,sans-Serif" font-size="14.00">latitude &lt;= 43.988</text>
<text text-anchor="middle" x="241.5" y="-79.8" font-family="Helvetica,sans-Serif" font-size="14.00">class = Canada</text>
</g>
<!-- 24&#45;&gt;26 -->
<g id="edge26" class="edge">
<title>24&#45;&gt;26</title>
<path fill="none" stroke="black" d="M194.4,-145.83C201.73,-137.45 210.57,-127.35 218.6,-118.17"/>
<polygon fill="black" stroke="black" points="221.44,-120.24 225.39,-110.41 216.17,-115.63 221.44,-120.24"/>
</g>
<!-- 27 -->
<g id="node28" class="node">
<title>27</title>
<polygon fill="none" stroke="black" points="236.5,-36 126.5,-36 126.5,0 236.5,0 236.5,-36"/>
<text text-anchor="middle" x="181.5" y="-14.3" font-family="Helvetica,sans-Serif" font-size="14.00">class = Canada</text>
</g>
<!-- 26&#45;&gt;27 -->
<g id="edge27" class="edge">
<title>26&#45;&gt;27</title>
<path fill="none" stroke="black" d="M226.05,-71.72C218.85,-63.2 210.18,-52.94 202.41,-43.74"/>
<polygon fill="black" stroke="black" points="205,-41.38 195.87,-36 199.65,-45.9 205,-41.38"/>
</g>
<!-- 28 -->
<g id="node29" class="node">
<title>28</title>
<polygon fill="none" stroke="black" points="346,-36 255,-36 255,0 346,0 346,-36"/>
<text text-anchor="middle" x="300.5" y="-14.3" font-family="Helvetica,sans-Serif" font-size="14.00">class = USA</text>
</g>
<!-- 26&#45;&gt;28 -->
<g id="edge28" class="edge">
<title>26&#45;&gt;28</title>
<path fill="none" stroke="black" d="M256.69,-71.72C263.77,-63.2 272.3,-52.94 279.94,-43.74"/>
<polygon fill="black" stroke="black" points="282.67,-45.93 286.37,-36 277.29,-41.46 282.67,-45.93"/>
</g>
<!-- 31 -->
<g id="node32" class="node">
<title>31</title>
<polygon fill="none" stroke="black" points="480,-257 389,-257 389,-221 480,-221 480,-257"/>
<text text-anchor="middle" x="434.5" y="-235.3" font-family="Helvetica,sans-Serif" font-size="14.00">class = USA</text>
</g>
<!-- 30&#45;&gt;31 -->
<g id="edge31" class="edge">
<title>30&#45;&gt;31</title>
<path fill="none" stroke="black" d="M459.17,-293.83C455.41,-285.63 450.9,-275.78 446.77,-266.76"/>
<polygon fill="black" stroke="black" points="449.83,-265.05 442.48,-257.42 443.47,-267.97 449.83,-265.05"/>
</g>
<!-- 32 -->
<g id="node33" class="node">
<title>32</title>
<polygon fill="none" stroke="black" points="639,-258 498,-258 498,-220 639,-220 639,-258"/>
<text text-anchor="middle" x="568.5" y="-242.8" font-family="Helvetica,sans-Serif" font-size="14.00">longitude &lt;= &#45;75.503</text>
<text text-anchor="middle" x="568.5" y="-227.8" font-family="Helvetica,sans-Serif" font-size="14.00">class = Canada</text>
</g>
<!-- 30&#45;&gt;32 -->
<g id="edge32" class="edge">
<title>30&#45;&gt;32</title>
<path fill="none" stroke="black" d="M492.99,-293.83C505.67,-284.79 521.16,-273.75 534.81,-264.02"/>
<polygon fill="black" stroke="black" points="536.91,-266.82 543.02,-258.16 532.85,-261.12 536.91,-266.82"/>
</g>
<!-- 33 -->
<g id="node34" class="node">
<title>33</title>
<polygon fill="none" stroke="black" points="510.5,-183 400.5,-183 400.5,-147 510.5,-147 510.5,-183"/>
<text text-anchor="middle" x="455.5" y="-161.3" font-family="Helvetica,sans-Serif" font-size="14.00">class = Canada</text>
</g>
<!-- 32&#45;&gt;33 -->
<g id="edge33" class="edge">
<title>32&#45;&gt;33</title>
<path fill="none" stroke="black" d="M539.99,-219.83C525.09,-210.34 506.72,-198.64 490.92,-188.57"/>
<polygon fill="black" stroke="black" points="492.76,-185.59 482.45,-183.17 489,-191.5 492.76,-185.59"/>
</g>
<!-- 34 -->
<g id="node35" class="node">
<title>34</title>
<polygon fill="none" stroke="black" points="620,-183 529,-183 529,-147 620,-147 620,-183"/>
<text text-anchor="middle" x="574.5" y="-161.3" font-family="Helvetica,sans-Serif" font-size="14.00">class = USA</text>
</g>
<!-- 32&#45;&gt;34 -->
<g id="edge34" class="edge">
<title>32&#45;&gt;34</title>
<path fill="none" stroke="black" d="M570.01,-219.83C570.68,-211.89 571.47,-202.41 572.2,-193.63"/>
<polygon fill="black" stroke="black" points="575.71,-193.67 573.05,-183.42 568.73,-193.09 575.71,-193.67"/>
</g>
<!-- 37 -->
<g id="node38" class="node">
<title>37</title>
<polygon fill="none" stroke="black" points="808,-480 667,-480 667,-442 808,-442 808,-480"/>
<text text-anchor="middle" x="737.5" y="-464.8" font-family="Helvetica,sans-Serif" font-size="14.00">longitude &lt;= &#45;67.279</text>
<text text-anchor="middle" x="737.5" y="-449.8" font-family="Helvetica,sans-Serif" font-size="14.00">class = USA</text>
</g>
<!-- 36&#45;&gt;37 -->
<g id="edge37" class="edge">
<title>36&#45;&gt;37</title>
<path fill="none" stroke="black" d="M737.5,-515.83C737.5,-508.13 737.5,-498.97 737.5,-490.42"/>
<polygon fill="black" stroke="black" points="741,-490.41 737.5,-480.41 734,-490.41 741,-490.41"/>
</g>
<!-- 54 -->
<g id="node55" class="node">
<title>54</title>
<polygon fill="none" stroke="black" points="936.5,-479 826.5,-479 826.5,-443 936.5,-443 936.5,-479"/>
<text text-anchor="middle" x="881.5" y="-457.3" font-family="Helvetica,sans-Serif" font-size="14.00">class = Canada</text>
</g>
<!-- 36&#45;&gt;54 -->
<g id="edge54" class="edge">
<title>36&#45;&gt;54</title>
<path fill="none" stroke="black" d="M773.84,-515.83C793.35,-506.08 817.53,-493.99 838.03,-483.74"/>
<polygon fill="black" stroke="black" points="839.78,-486.77 847.16,-479.17 836.65,-480.51 839.78,-486.77"/>
</g>
<!-- 38 -->
<g id="node39" class="node">
<title>38</title>
<polygon fill="none" stroke="black" points="804.5,-406 670.5,-406 670.5,-368 804.5,-368 804.5,-406"/>
<text text-anchor="middle" x="737.5" y="-390.8" font-family="Helvetica,sans-Serif" font-size="14.00">longitude &lt;= &#45;67.93</text>
<text text-anchor="middle" x="737.5" y="-375.8" font-family="Helvetica,sans-Serif" font-size="14.00">class = Canada</text>
</g>
<!-- 37&#45;&gt;38 -->
<g id="edge38" class="edge">
<title>37&#45;&gt;38</title>
<path fill="none" stroke="black" d="M737.5,-441.83C737.5,-434.13 737.5,-424.97 737.5,-416.42"/>
<polygon fill="black" stroke="black" points="741,-416.41 737.5,-406.41 734,-416.41 741,-416.41"/>
</g>
<!-- 53 -->
<g id="node54" class="node">
<title>53</title>
<polygon fill="none" stroke="black" points="914,-405 823,-405 823,-369 914,-369 914,-405"/>
<text text-anchor="middle" x="868.5" y="-383.3" font-family="Helvetica,sans-Serif" font-size="14.00">class = USA</text>
</g>
<!-- 37&#45;&gt;53 -->
<g id="edge53" class="edge">
<title>37&#45;&gt;53</title>
<path fill="none" stroke="black" d="M770.56,-441.83C788.14,-432.17 809.91,-420.2 828.45,-410.01"/>
<polygon fill="black" stroke="black" points="830.18,-413.06 837.26,-405.17 826.81,-406.92 830.18,-413.06"/>
</g>
<!-- 39 -->
<g id="node40" class="node">
<title>39</title>
<polygon fill="none" stroke="black" points="808,-332 667,-332 667,-294 808,-294 808,-332"/>
<text text-anchor="middle" x="737.5" y="-316.8" font-family="Helvetica,sans-Serif" font-size="14.00">longitude &lt;= &#45;68.325</text>
<text text-anchor="middle" x="737.5" y="-301.8" font-family="Helvetica,sans-Serif" font-size="14.00">class = USA</text>
</g>
<!-- 38&#45;&gt;39 -->
<g id="edge39" class="edge">
<title>38&#45;&gt;39</title>
<path fill="none" stroke="black" d="M737.5,-367.83C737.5,-360.13 737.5,-350.97 737.5,-342.42"/>
<polygon fill="black" stroke="black" points="741,-342.41 737.5,-332.41 734,-342.41 741,-342.41"/>
</g>
<!-- 48 -->
<g id="node49" class="node">
<title>48</title>
<polygon fill="none" stroke="black" points="1058,-332 933,-332 933,-294 1058,-294 1058,-332"/>
<text text-anchor="middle" x="995.5" y="-316.8" font-family="Helvetica,sans-Serif" font-size="14.00">latitude &lt;= 45.565</text>
<text text-anchor="middle" x="995.5" y="-301.8" font-family="Helvetica,sans-Serif" font-size="14.00">class = Canada</text>
</g>
<!-- 38&#45;&gt;48 -->
<g id="edge48" class="edge">
<title>38&#45;&gt;48</title>
<path fill="none" stroke="black" d="M802.27,-367.92C838.99,-357.68 885.04,-344.83 922.97,-334.24"/>
<polygon fill="black" stroke="black" points="924.24,-337.52 932.93,-331.46 922.36,-330.78 924.24,-337.52"/>
</g>
<!-- 40 -->
<g id="node41" class="node">
<title>40</title>
<polygon fill="none" stroke="black" points="798,-258 657,-258 657,-220 798,-220 798,-258"/>
<text text-anchor="middle" x="727.5" y="-242.8" font-family="Helvetica,sans-Serif" font-size="14.00">longitude &lt;= &#45;68.915</text>
<text text-anchor="middle" x="727.5" y="-227.8" font-family="Helvetica,sans-Serif" font-size="14.00">class = Canada</text>
</g>
<!-- 39&#45;&gt;40 -->
<g id="edge40" class="edge">
<title>39&#45;&gt;40</title>
<path fill="none" stroke="black" d="M734.98,-293.83C733.91,-286.13 732.64,-276.97 731.45,-268.42"/>
<polygon fill="black" stroke="black" points="734.9,-267.84 730.06,-258.41 727.97,-268.8 734.9,-267.84"/>
</g>
<!-- 47 -->
<g id="node48" class="node">
<title>47</title>
<polygon fill="none" stroke="black" points="907,-257 816,-257 816,-221 907,-221 907,-257"/>
<text text-anchor="middle" x="861.5" y="-235.3" font-family="Helvetica,sans-Serif" font-size="14.00">class = USA</text>
</g>
<!-- 39&#45;&gt;47 -->
<g id="edge47" class="edge">
<title>39&#45;&gt;47</title>
<path fill="none" stroke="black" d="M768.79,-293.83C785.29,-284.25 805.66,-272.42 823.11,-262.29"/>
<polygon fill="black" stroke="black" points="825.04,-265.22 831.93,-257.17 821.52,-259.17 825.04,-265.22"/>
</g>
<!-- 41 -->
<g id="node42" class="node">
<title>41</title>
<polygon fill="none" stroke="black" points="754,-183 663,-183 663,-147 754,-147 754,-183"/>
<text text-anchor="middle" x="708.5" y="-161.3" font-family="Helvetica,sans-Serif" font-size="14.00">class = USA</text>
</g>
<!-- 40&#45;&gt;41 -->
<g id="edge41" class="edge">
<title>40&#45;&gt;41</title>
<path fill="none" stroke="black" d="M722.71,-219.83C720.59,-211.81 718.05,-202.2 715.71,-193.34"/>
<polygon fill="black" stroke="black" points="719.03,-192.19 713.1,-183.42 712.26,-193.98 719.03,-192.19"/>
</g>
<!-- 42 -->
<g id="node43" class="node">
<title>42</title>
<polygon fill="none" stroke="black" points="913,-184 772,-184 772,-146 913,-146 913,-184"/>
<text text-anchor="middle" x="842.5" y="-168.8" font-family="Helvetica,sans-Serif" font-size="14.00">longitude &lt;= &#45;68.597</text>
<text text-anchor="middle" x="842.5" y="-153.8" font-family="Helvetica,sans-Serif" font-size="14.00">class = Canada</text>
</g>
<!-- 40&#45;&gt;42 -->
<g id="edge42" class="edge">
<title>40&#45;&gt;42</title>
<path fill="none" stroke="black" d="M756.52,-219.83C771.23,-210.62 789.26,-199.33 805.01,-189.47"/>
<polygon fill="black" stroke="black" points="806.87,-192.44 813.49,-184.16 803.16,-186.5 806.87,-192.44"/>
</g>
<!-- 43 -->
<g id="node44" class="node">
<title>43</title>
<polygon fill="none" stroke="black" points="829.5,-109 719.5,-109 719.5,-73 829.5,-73 829.5,-109"/>
<text text-anchor="middle" x="774.5" y="-87.3" font-family="Helvetica,sans-Serif" font-size="14.00">class = Canada</text>
</g>
<!-- 42&#45;&gt;43 -->
<g id="edge43" class="edge">
<title>42&#45;&gt;43</title>
<path fill="none" stroke="black" d="M825.34,-145.83C817.02,-137.02 806.9,-126.31 797.89,-116.76"/>
<polygon fill="black" stroke="black" points="800.36,-114.28 790.95,-109.42 795.27,-119.09 800.36,-114.28"/>
</g>
<!-- 44 -->
<g id="node45" class="node">
<title>44</title>
<polygon fill="none" stroke="black" points="973,-110 848,-110 848,-72 973,-72 973,-110"/>
<text text-anchor="middle" x="910.5" y="-94.8" font-family="Helvetica,sans-Serif" font-size="14.00">latitude &lt;= 47.312</text>
<text text-anchor="middle" x="910.5" y="-79.8" font-family="Helvetica,sans-Serif" font-size="14.00">class = Canada</text>
</g>
<!-- 42&#45;&gt;44 -->
<g id="edge44" class="edge">
<title>42&#45;&gt;44</title>
<path fill="none" stroke="black" d="M859.66,-145.83C867.65,-137.37 877.3,-127.15 886.04,-117.9"/>
<polygon fill="black" stroke="black" points="888.79,-120.09 893.11,-110.41 883.7,-115.28 888.79,-120.09"/>
</g>
<!-- 45 -->
<g id="node46" class="node">
<title>45</title>
<polygon fill="none" stroke="black" points="896,-36 805,-36 805,0 896,0 896,-36"/>
<text text-anchor="middle" x="850.5" y="-14.3" font-family="Helvetica,sans-Serif" font-size="14.00">class = USA</text>
</g>
<!-- 44&#45;&gt;45 -->
<g id="edge45" class="edge">
<title>44&#45;&gt;45</title>
<path fill="none" stroke="black" d="M895.05,-71.72C887.85,-63.2 879.18,-52.94 871.41,-43.74"/>
<polygon fill="black" stroke="black" points="874,-41.38 864.87,-36 868.65,-45.9 874,-41.38"/>
</g>
<!-- 46 -->
<g id="node47" class="node">
<title>46</title>
<polygon fill="none" stroke="black" points="1024.5,-36 914.5,-36 914.5,0 1024.5,0 1024.5,-36"/>
<text text-anchor="middle" x="969.5" y="-14.3" font-family="Helvetica,sans-Serif" font-size="14.00">class = Canada</text>
</g>
<!-- 44&#45;&gt;46 -->
<g id="edge46" class="edge">
<title>44&#45;&gt;46</title>
<path fill="none" stroke="black" d="M925.69,-71.72C932.77,-63.2 941.3,-52.94 948.94,-43.74"/>
<polygon fill="black" stroke="black" points="951.67,-45.93 955.37,-36 946.29,-41.46 951.67,-45.93"/>
</g>
<!-- 49 -->
<g id="node50" class="node">
<title>49</title>
<polygon fill="none" stroke="black" points="1066,-258 925,-258 925,-220 1066,-220 1066,-258"/>
<text text-anchor="middle" x="995.5" y="-242.8" font-family="Helvetica,sans-Serif" font-size="14.00">longitude &lt;= &#45;67.355</text>
<text text-anchor="middle" x="995.5" y="-227.8" font-family="Helvetica,sans-Serif" font-size="14.00">class = Canada</text>
</g>
<!-- 48&#45;&gt;49 -->
<g id="edge49" class="edge">
<title>48&#45;&gt;49</title>
<path fill="none" stroke="black" d="M995.5,-293.83C995.5,-286.13 995.5,-276.97 995.5,-268.42"/>
<polygon fill="black" stroke="black" points="999,-268.41 995.5,-258.41 992,-268.41 999,-268.41"/>
</g>
<!-- 52 -->
<g id="node53" class="node">
<title>52</title>
<polygon fill="none" stroke="black" points="1194.5,-257 1084.5,-257 1084.5,-221 1194.5,-221 1194.5,-257"/>
<text text-anchor="middle" x="1139.5" y="-235.3" font-family="Helvetica,sans-Serif" font-size="14.00">class = Canada</text>
</g>
<!-- 48&#45;&gt;52 -->
<g id="edge52" class="edge">
<title>48&#45;&gt;52</title>
<path fill="none" stroke="black" d="M1031.84,-293.83C1051.35,-284.08 1075.53,-271.99 1096.03,-261.74"/>
<polygon fill="black" stroke="black" points="1097.78,-264.77 1105.16,-257.17 1094.65,-258.51 1097.78,-264.77"/>
</g>
<!-- 50 -->
<g id="node51" class="node">
<title>50</title>
<polygon fill="none" stroke="black" points="1034,-183 943,-183 943,-147 1034,-147 1034,-183"/>
<text text-anchor="middle" x="988.5" y="-161.3" font-family="Helvetica,sans-Serif" font-size="14.00">class = USA</text>
</g>
<!-- 49&#45;&gt;50 -->
<g id="edge50" class="edge">
<title>49&#45;&gt;50</title>
<path fill="none" stroke="black" d="M993.73,-219.83C992.96,-211.89 992.04,-202.41 991.19,-193.63"/>
<polygon fill="black" stroke="black" points="994.64,-193.03 990.19,-183.42 987.68,-193.71 994.64,-193.03"/>
</g>
<!-- 51 -->
<g id="node52" class="node">
<title>51</title>
<polygon fill="none" stroke="black" points="1162.5,-183 1052.5,-183 1052.5,-147 1162.5,-147 1162.5,-183"/>
<text text-anchor="middle" x="1107.5" y="-161.3" font-family="Helvetica,sans-Serif" font-size="14.00">class = Canada</text>
</g>
<!-- 49&#45;&gt;51 -->
<g id="edge51" class="edge">
<title>49&#45;&gt;51</title>
<path fill="none" stroke="black" d="M1023.76,-219.83C1038.39,-210.43 1056.39,-198.86 1071.95,-188.85"/>
<polygon fill="black" stroke="black" points="1074.27,-191.52 1080.79,-183.17 1070.48,-185.63 1074.27,-191.52"/>
</g>
</g>
</svg>