<?xml version="1.0" encoding="UTF-8" standalone="no"?>
<!DOCTYPE svg PUBLIC "-//W3C//DTD SVG 1.1//EN"
 "http://www.w3.org/Graphics/SVG/1.1/DTD/svg11.dtd">
<!-- Generated by graphviz version 2.50.0 (0)
 -->
<!-- Pages: 1 -->
<svg width="378pt" height="261pt"
 viewBox="0.00 0.00 378.00 261.00" xmlns="http://www.w3.org/2000/svg" xmlns:xlink="http://www.w3.org/1999/xlink">
<g id="graph0" class="graph" transform="scale(1 1) rotate(0) translate(4 257)">
<polygon fill="white" stroke="transparent" points="-4,4 -4,-257 374,-257 374,4 -4,4"/>
<g id="clust1" class="cluster">
<title>cluster_0</title>
<polygon fill="none" stroke="white" points="8,-8 8,-245 60,-245 60,-8 8,-8"/>
<text text-anchor="middle" x="34" y="-229.8" font-family="Times,serif" font-size="14.00">inputs</text>
</g>
<g id="clust2" class="cluster">
<title>cluster_1</title>
<polygon fill="none" stroke="white" points="80,-35 80,-218 175,-218 175,-35 80,-35"/>
<text text-anchor="middle" x="127.5" y="-202.8" font-family="Times,serif" font-size="14.00">hidden layer 1</text>
</g>
<g id="clust3" class="cluster">
<title>cluster_2</title>
<polygon fill="none" stroke="white" points="195,-35 195,-218 290,-218 290,-35 195,-35"/>
<text text-anchor="middle" x="242.5" y="-202.8" font-family="Times,serif" font-size="14.00">hidden layer 2</text>
</g>
<g id="clust4" class="cluster">
<title>cluster_3</title>
<polygon fill="none" stroke="white" points="310,-89 310,-164 362,-164 362,-89 310,-89"/>
<text text-anchor="middle" x="336" y="-148.8" font-family="Times,serif" font-size="14.00">output</text>
</g>
<!-- x[0] -->
<g id="node1" class="node">
<title>x[0]</title>
<ellipse fill="none" stroke="black" cx="34" cy="-196" rx="18" ry="18"/>
<text text-anchor="middle" x="34" y="-192.3" font-family="Times,serif" font-size="14.00">x[0]</text>
</g>
<!-- h1[0] -->
<g id="node5" class="node">
<title>h1[0]</title>
<ellipse fill="none" stroke="black" cx="127" cy="-61" rx="18" ry="18"/>
<text text-anchor="middle" x="127" y="-57.3" font-family="Times,serif" font-size="14.00">h1[0]</text>
</g>
<!-- x[0]&#45;&gt;h1[0] -->
<g id="edge1" class="edge">
<title>x[0]&#45;&gt;h1[0]</title>
<path fill="none" stroke="black" d="M44.74,-181.55C60.46,-158.23 91.57,-112.08 110.41,-84.13"/>
<polygon fill="black" stroke="black" points="113.37,-86 116.06,-75.75 107.56,-82.09 113.37,-86"/>
</g>
<!-- h1[1] -->
<g id="node6" class="node">
<title>h1[1]</title>
<ellipse fill="none" stroke="black" cx="127" cy="-169" rx="18" ry="18"/>
<text text-anchor="middle" x="127" y="-165.3" font-family="Times,serif" font-size="14.00">h1[1]</text>
</g>
<!-- x[0]&#45;&gt;h1[1] -->
<g id="edge2" class="edge">
<title>x[0]&#45;&gt;h1[1]</title>
<path fill="none" stroke="black" d="M51.69,-191.05C65.03,-187.09 83.99,-181.47 99.41,-176.89"/>
<polygon fill="black" stroke="black" points="100.82,-180.12 109.42,-173.92 98.83,-173.41 100.82,-180.12"/>
</g>
<!-- h1[2] -->
<g id="node7" class="node">
<title>h1[2]</title>
<ellipse fill="none" stroke="black" cx="127" cy="-115" rx="18" ry="18"/>
<text text-anchor="middle" x="127" y="-111.3" font-family="Times,serif" font-size="14.00">h1[2]</text>
</g>
<!-- x[0]&#45;&gt;h1[2] -->
<g id="edge3" class="edge">
<title>x[0]&#45;&gt;h1[2]</title>
<path fill="none" stroke="black" d="M48.04,-184.39C63.04,-171.04 87.86,-148.94 105.47,-133.28"/>
<polygon fill="black" stroke="black" points="107.84,-135.85 112.99,-126.58 103.19,-130.62 107.84,-135.85"/>
</g>
<!-- x[1] -->
<g id="node2" class="node">
<title>x[1]</title>
<ellipse fill="none" stroke="black" cx="34" cy="-142" rx="18" ry="18"/>
<text text-anchor="middle" x="34" y="-138.3" font-family="Times,serif" font-size="14.00">x[1]</text>
</g>
<!-- x[1]&#45;&gt;h1[0] -->
<g id="edge4" class="edge">
<title>x[1]&#45;&gt;h1[0]</title>
<path fill="none" stroke="black" d="M48.04,-130.39C63.04,-117.04 87.86,-94.94 105.47,-79.28"/>
<polygon fill="black" stroke="black" points="107.84,-81.85 112.99,-72.58 103.19,-76.62 107.84,-81.85"/>
</g>
<!-- x[1]&#45;&gt;h1[1] -->
<g id="edge5" class="edge">
<title>x[1]&#45;&gt;h1[1]</title>
<path fill="none" stroke="black" d="M51.69,-146.95C65.03,-150.91 83.99,-156.53 99.41,-161.11"/>
<polygon fill="black" stroke="black" points="98.83,-164.59 109.42,-164.08 100.82,-157.88 98.83,-164.59"/>
</g>
<!-- x[1]&#45;&gt;h1[2] -->
<g id="edge6" class="edge">
<title>x[1]&#45;&gt;h1[2]</title>
<path fill="none" stroke="black" d="M51.69,-137.05C65.03,-133.09 83.99,-127.47 99.41,-122.89"/>
<polygon fill="black" stroke="black" points="100.82,-126.12 109.42,-119.92 98.83,-119.41 100.82,-126.12"/>
</g>
<!-- x[2] -->
<g id="node3" class="node">
<title>x[2]</title>
<ellipse fill="none" stroke="black" cx="34" cy="-88" rx="18" ry="18"/>
<text text-anchor="middle" x="34" y="-84.3" font-family="Times,serif" font-size="14.00">x[2]</text>
</g>
<!-- x[2]&#45;&gt;h1[0] -->
<g id="edge7" class="edge">
<title>x[2]&#45;&gt;h1[0]</title>
<path fill="none" stroke="black" d="M51.69,-83.05C65.03,-79.09 83.99,-73.47 99.41,-68.89"/>
<polygon fill="black" stroke="black" points="100.82,-72.12 109.42,-65.92 98.83,-65.41 100.82,-72.12"/>
</g>
<!-- x[2]&#45;&gt;h1[1] -->
<g id="edge8" class="edge">
<title>x[2]&#45;&gt;h1[1]</title>
<path fill="none" stroke="black" d="M48.04,-99.61C63.04,-112.96 87.86,-135.06 105.47,-150.72"/>
<polygon fill="black" stroke="black" points="103.19,-153.38 112.99,-157.42 107.84,-148.15 103.19,-153.38"/>
</g>
<!-- x[2]&#45;&gt;h1[2] -->
<g id="edge9" class="edge">
<title>x[2]&#45;&gt;h1[2]</title>
<path fill="none" stroke="black" d="M51.69,-92.95C65.03,-96.91 83.99,-102.53 99.41,-107.11"/>
<polygon fill="black" stroke="black" points="98.83,-110.59 109.42,-110.08 100.82,-103.88 98.83,-110.59"/>
</g>
<!-- x[3] -->
<g id="node4" class="node">
<title>x[3]</title>
<ellipse fill="none" stroke="black" cx="34" cy="-34" rx="18" ry="18"/>
<text text-anchor="middle" x="34" y="-30.3" font-family="Times,serif" font-size="14.00">x[3]</text>
</g>
<!-- x[3]&#45;&gt;h1[0] -->
<g id="edge10" class="edge">
<title>x[3]&#45;&gt;h1[0]</title>
<path fill="none" stroke="black" d="M51.69,-38.95C65.03,-42.91 83.99,-48.53 99.41,-53.11"/>
<polygon fill="black" stroke="black" points="98.83,-56.59 109.42,-56.08 100.82,-49.88 98.83,-56.59"/>
</g>
<!-- x[3]&#45;&gt;h1[1] -->
<g id="edge11" class="edge">
<title>x[3]&#45;&gt;h1[1]</title>
<path fill="none" stroke="black" d="M44.74,-48.45C60.46,-71.77 91.57,-117.92 110.41,-145.87"/>
<polygon fill="black" stroke="black" points="107.56,-147.91 116.06,-154.25 113.37,-144 107.56,-147.91"/>
</g>
<!-- x[3]&#45;&gt;h1[2] -->
<g id="edge12" class="edge">
<title>x[3]&#45;&gt;h1[2]</title>
<path fill="none" stroke="black" d="M48.04,-45.61C63.04,-58.96 87.86,-81.06 105.47,-96.72"/>
<polygon fill="black" stroke="black" points="103.19,-99.38 112.99,-103.42 107.84,-94.15 103.19,-99.38"/>
</g>
<!-- h2[0] -->
<g id="node8" class="node">
<title>h2[0]</title>
<ellipse fill="none" stroke="black" cx="242" cy="-61" rx="18" ry="18"/>
<text text-anchor="middle" x="242" y="-57.3" font-family="Times,serif" font-size="14.00">h2[0]</text>
</g>
<!-- h1[0]&#45;&gt;h2[0] -->
<g id="edge13" class="edge">
<title>h1[0]&#45;&gt;h2[0]</title>
<path fill="none" stroke="black" d="M145.16,-61C163.33,-61 192.28,-61 213.61,-61"/>
<polygon fill="black" stroke="black" points="213.68,-64.5 223.68,-61 213.68,-57.5 213.68,-64.5"/>
</g>
<!-- h2[1] -->
<g id="node9" class="node">
<title>h2[1]</title>
<ellipse fill="none" stroke="black" cx="242" cy="-169" rx="18" ry="18"/>
<text text-anchor="middle" x="242" y="-165.3" font-family="Times,serif" font-size="14.00">h2[1]</text>
</g>
<!-- h1[0]&#45;&gt;h2[1] -->
<g id="edge14" class="edge">
<title>h1[0]&#45;&gt;h2[1]</title>
<path fill="none" stroke="black" d="M140.52,-72.97C160.04,-91.62 197.87,-127.78 221.14,-150.01"/>
<polygon fill="black" stroke="black" points="218.77,-152.6 228.42,-156.98 223.61,-147.54 218.77,-152.6"/>
</g>
<!-- h2[2] -->
<g id="node10" class="node">
<title>h2[2]</title>
<ellipse fill="none" stroke="black" cx="242" cy="-115" rx="18" ry="18"/>
<text text-anchor="middle" x="242" y="-111.3" font-family="Times,serif" font-size="14.00">h2[2]</text>
</g>
<!-- h1[0]&#45;&gt;h2[2] -->
<g id="edge15" class="edge">
<title>h1[0]&#45;&gt;h2[2]</title>
<path fill="none" stroke="black" d="M143.71,-68.51C162.52,-77.5 194.23,-92.65 216.32,-103.21"/>
<polygon fill="black" stroke="black" points="214.89,-106.4 225.42,-107.56 217.91,-100.09 214.89,-106.4"/>
</g>
<!-- h1[1]&#45;&gt;h2[0] -->
<g id="edge16" class="edge">
<title>h1[1]&#45;&gt;h2[0]</title>
<path fill="none" stroke="black" d="M140.52,-157.03C160.04,-138.38 197.87,-102.22 221.14,-79.99"/>
<polygon fill="black" stroke="black" points="223.61,-82.46 228.42,-73.02 218.77,-77.4 223.61,-82.46"/>
</g>
<!-- h1[1]&#45;&gt;h2[1] -->
<g id="edge17" class="edge">
<title>h1[1]&#45;&gt;h2[1]</title>
<path fill="none" stroke="black" d="M145.16,-169C163.33,-169 192.28,-169 213.61,-169"/>
<polygon fill="black" stroke="black" points="213.68,-172.5 223.68,-169 213.68,-165.5 213.68,-172.5"/>
</g>
<!-- h1[1]&#45;&gt;h2[2] -->
<g id="edge18" class="edge">
<title>h1[1]&#45;&gt;h2[2]</title>
<path fill="none" stroke="black" d="M143.71,-161.49C162.52,-152.5 194.23,-137.35 216.32,-126.79"/>
<polygon fill="black" stroke="black" points="217.91,-129.91 225.42,-122.44 214.89,-123.6 217.91,-129.91"/>
</g>
<!-- h1[2]&#45;&gt;h2[0] -->
<g id="edge19" class="edge">
<title>h1[2]&#45;&gt;h2[0]</title>
<path fill="none" stroke="black" d="M143.71,-107.49C162.52,-98.5 194.23,-83.35 216.32,-72.79"/>
<polygon fill="black" stroke="black" points="217.91,-75.91 225.42,-68.44 214.89,-69.6 217.91,-75.91"/>
</g>
<!-- h1[2]&#45;&gt;h2[1] -->
<g id="edge20" class="edge">
<title>h1[2]&#45;&gt;h2[1]</title>
<path fill="none" stroke="black" d="M143.71,-122.51C162.52,-131.5 194.23,-146.65 216.32,-157.21"/>
<polygon fill="black" stroke="black" points="214.89,-160.4 225.42,-161.56 217.91,-154.09 214.89,-160.4"/>
</g>
<!-- h1[2]&#45;&gt;h2[2] -->
<g id="edge21" class="edge">
<title>h1[2]&#45;&gt;h2[2]</title>
<path fill="none" stroke="black" d="M145.16,-115C163.33,-115 192.28,-115 213.61,-115"/>
<polygon fill="black" stroke="black" points="213.68,-118.5 223.68,-115 213.68,-111.5 213.68,-118.5"/>
</g>
<!-- y -->
<g id="node11" class="node">
<title>y</title>
<ellipse fill="none" stroke="black" cx="336" cy="-115" rx="18" ry="18"/>
<text text-anchor="middle" x="336" y="-111.3" font-family="Times,serif" font-size="14.00">y</text>
</g>
<!-- h2[0]&#45;&gt;y -->
<g id="edge22" class="edge">
<title>h2[0]&#45;&gt;y</title>
<path fill="none" stroke="black" d="M257.78,-69.68C272.18,-78.13 294.31,-91.12 311.19,-101.03"/>
<polygon fill="black" stroke="black" points="309.55,-104.12 319.95,-106.17 313.1,-98.09 309.55,-104.12"/>
</g>
<!-- h2[1]&#45;&gt;y -->
<g id="edge23" class="edge">
<title>h2[1]&#45;&gt;y</title>
<path fill="none" stroke="black" d="M257.78,-160.32C272.18,-151.87 294.31,-138.88 311.19,-128.97"/>
<polygon fill="black" stroke="black" points="313.1,-131.91 319.95,-123.83 309.55,-125.88 313.1,-131.91"/>
</g>
<!-- h2[2]&#45;&gt;y -->
<g id="edge24" class="edge">
<title>h2[2]&#45;&gt;y</title>
<path fill="none" stroke="black" d="M260.3,-115C273.54,-115 292.05,-115 307.34,-115"/>
<polygon fill="black" stroke="black" points="307.77,-118.5 317.77,-115 307.77,-111.5 307.77,-118.5"/>
</g>
</g>
</svg>