<?xml version="1.0" encoding="UTF-8" standalone="no"?>
<!DOCTYPE svg PUBLIC "-//W3C//DTD SVG 1.1//EN"
 "http://www.w3.org/Graphics/SVG/1.1/DTD/svg11.dtd">
<!-- Generated by graphviz version 2.50.0 (0)
 -->
<!-- Title: Tree Pages: 1 -->
<svg width="412pt" height="192pt"
 viewBox="0.00 0.00 412.00 192.00" xmlns="http://www.w3.org/2000/svg" xmlns:xlink="http://www.w3.org/1999/xlink">
<g id="graph0" class="graph" transform="scale(1 1) rotate(0) translate(4 188)">
<title>Tree</title>
<polygon fill="white" stroke="transparent" points="-4,4 -4,-188 408,-188 408,4 -4,4"/>
<!-- 0 -->
<g id="node1" class="node">
<title>0</title>
<polygon fill="none" stroke="black" points="285,-184 117,-184 117,-146 285,-146 285,-184"/>
<text text-anchor="middle" x="201" y="-168.8" font-family="Helvetica,sans-Serif" font-size="14.00">x1_Never&#45;married &lt;= 0.5</text>
<text text-anchor="middle" x="201" y="-153.8" font-family="Helvetica,sans-Serif" font-size="14.00">class = 0.0</text>
</g>
<!-- 1 -->
<g id="node2" class="node">
<title>1</title>
<polygon fill="none" stroke="black" points="200.5,-110 57.5,-110 57.5,-72 200.5,-72 200.5,-110"/>
<text text-anchor="middle" x="129" y="-94.8" font-family="Helvetica,sans-Serif" font-size="14.00">capital.gain &lt;= 0.531</text>
<text text-anchor="middle" x="129" y="-79.8" font-family="Helvetica,sans-Serif" font-size="14.00">class = 0.0</text>
</g>
<!-- 0&#45;&gt;1 -->
<g id="edge1" class="edge">
<title>0&#45;&gt;1</title>
<path fill="none" stroke="black" d="M182.83,-145.83C174.28,-137.28 163.94,-126.94 154.62,-117.62"/>
<polygon fill="black" stroke="black" points="156.96,-115.01 147.41,-110.41 152.01,-119.96 156.96,-115.01"/>
<text text-anchor="middle" x="147.41" y="-131.71" font-family="Helvetica,sans-Serif" font-size="14.00">True</text>
</g>
<!-- 4 -->
<g id="node5" class="node">
<title>4</title>
<polygon fill="none" stroke="black" points="329,-110 219,-110 219,-72 329,-72 329,-110"/>
<text text-anchor="middle" x="274" y="-94.8" font-family="Helvetica,sans-Serif" font-size="14.00">fnlwgt &lt;= 7.478</text>
<text text-anchor="middle" x="274" y="-79.8" font-family="Helvetica,sans-Serif" font-size="14.00">class = 0.0</text>
</g>
<!-- 0&#45;&gt;4 -->
<g id="edge4" class="edge">
<title>0&#45;&gt;4</title>
<path fill="none" stroke="black" d="M219.42,-145.83C228.15,-137.22 238.73,-126.79 248.24,-117.4"/>
<polygon fill="black" stroke="black" points="250.92,-119.68 255.58,-110.16 246.01,-114.69 250.92,-119.68"/>
<text text-anchor="middle" x="255.41" y="-131.46" font-family="Helvetica,sans-Serif" font-size="14.00">False</text>
</g>
<!-- 2 -->
<g id="node3" class="node">
<title>2</title>
<polygon fill="none" stroke="black" points="82,-36 0,-36 0,0 82,0 82,-36"/>
<text text-anchor="middle" x="41" y="-14.3" font-family="Helvetica,sans-Serif" font-size="14.00">class = 0.0</text>
</g>
<!-- 1&#45;&gt;2 -->
<g id="edge2" class="edge">
<title>1&#45;&gt;2</title>
<path fill="none" stroke="black" d="M106.34,-71.72C95.25,-62.77 81.77,-51.9 69.95,-42.36"/>
<polygon fill="black" stroke="black" points="72.06,-39.56 62.07,-36 67.66,-45.01 72.06,-39.56"/>
</g>
<!-- 3 -->
<g id="node4" class="node">
<title>3</title>
<polygon fill="none" stroke="black" points="182,-36 100,-36 100,0 182,0 182,-36"/>
<text text-anchor="middle" x="141" y="-14.3" font-family="Helvetica,sans-Serif" font-size="14.00">class = 1.0</text>
</g>
<!-- 1&#45;&gt;3 -->
<g id="edge3" class="edge">
<title>1&#45;&gt;3</title>
<path fill="none" stroke="black" d="M132.09,-71.72C133.41,-63.89 134.99,-54.59 136.44,-45.99"/>
<polygon fill="black" stroke="black" points="139.91,-46.45 138.13,-36 133.01,-45.28 139.91,-46.45"/>
</g>
<!-- 5 -->
<g id="node6" class="node">
<title>5</title>
<polygon fill="none" stroke="black" points="304,-36 222,-36 222,0 304,0 304,-36"/>
<text text-anchor="middle" x="263" y="-14.3" font-family="Helvetica,sans-Serif" font-size="14.00">class = 0.0</text>
</g>
<!-- 4&#45;&gt;5 -->
<g id="edge5" class="edge">
<title>4&#45;&gt;5</title>
<path fill="none" stroke="black" d="M271.17,-71.72C269.95,-63.89 268.51,-54.59 267.18,-45.99"/>
<polygon fill="black" stroke="black" points="270.62,-45.35 265.63,-36 263.71,-46.42 270.62,-45.35"/>
</g>
<!-- 6 -->
<g id="node7" class="node">
<title>6</title>
<polygon fill="none" stroke="black" points="404,-36 322,-36 322,0 404,0 404,-36"/>
<text text-anchor="middle" x="363" y="-14.3" font-family="Helvetica,sans-Serif" font-size="14.00">class = 1.0</text>
</g>
<!-- 4&#45;&gt;6 -->
<g id="edge6" class="edge">
<title>4&#45;&gt;6</title>
<path fill="none" stroke="black" d="M296.92,-71.72C308.13,-62.77 321.76,-51.9 333.72,-42.36"/>
<polygon fill="black" stroke="black" points="336.05,-44.98 341.69,-36 331.69,-39.5 336.05,-44.98"/>
</g>
</g>
</svg>