<?xml version="1.0" encoding="UTF-8" standalone="no"?>
<!DOCTYPE svg PUBLIC "-//W3C//DTD SVG 1.1//EN"
 "http://www.w3.org/Graphics/SVG/1.1/DTD/svg11.dtd">
<!-- Generated by graphviz version 2.50.0 (0)
 -->
<!-- Title: Tree Pages: 1 -->
<svg width="716pt" height="266pt"
 viewBox="0.00 0.00 716.00 266.00" xmlns="http://www.w3.org/2000/svg" xmlns:xlink="http://www.w3.org/1999/xlink">
<g id="graph0" class="graph" transform="scale(1 1) rotate(0) translate(4 262)">
<title>Tree</title>
<polygon fill="white" stroke="transparent" points="-4,4 -4,-262 712,-262 712,4 -4,4"/>
<!-- 0 -->
<g id="node1" class="node">
<title>0</title>
<polygon fill="none" stroke="black" points="421.5,-258 285.5,-258 285.5,-220 421.5,-220 421.5,-258"/>
<text text-anchor="middle" x="353.5" y="-242.8" font-family="Helvetica,sans-Serif" font-size="14.00">LightGBM &lt;= 0.432</text>
<text text-anchor="middle" x="353.5" y="-227.8" font-family="Helvetica,sans-Serif" font-size="14.00">class = 0</text>
</g>
<!-- 1 -->
<g id="node2" class="node">
<title>1</title>
<polygon fill="none" stroke="black" points="344.5,-184 208.5,-184 208.5,-146 344.5,-146 344.5,-184"/>
<text text-anchor="middle" x="276.5" y="-168.8" font-family="Helvetica,sans-Serif" font-size="14.00">LightGBM &lt;= 0.107</text>
<text text-anchor="middle" x="276.5" y="-153.8" font-family="Helvetica,sans-Serif" font-size="14.00">class = 0</text>
</g>
<!-- 0&#45;&gt;1 -->
<g id="edge1" class="edge">
<title>0&#45;&gt;1</title>
<path fill="none" stroke="black" d="M334.07,-219.83C324.77,-211.13 313.48,-200.58 303.37,-191.13"/>
<polygon fill="black" stroke="black" points="305.62,-188.44 295.92,-184.16 300.84,-193.55 305.62,-188.44"/>
<text text-anchor="middle" x="296.76" y="-205.45" font-family="Helvetica,sans-Serif" font-size="14.00">True</text>
</g>
<!-- 8 -->
<g id="node9" class="node">
<title>8</title>
<polygon fill="none" stroke="black" points="498.5,-184 362.5,-184 362.5,-146 498.5,-146 498.5,-184"/>
<text text-anchor="middle" x="430.5" y="-168.8" font-family="Helvetica,sans-Serif" font-size="14.00">LightGBM &lt;= 0.759</text>
<text text-anchor="middle" x="430.5" y="-153.8" font-family="Helvetica,sans-Serif" font-size="14.00">class = 1</text>
</g>
<!-- 0&#45;&gt;8 -->
<g id="edge8" class="edge">
<title>0&#45;&gt;8</title>
<path fill="none" stroke="black" d="M372.93,-219.83C382.23,-211.13 393.52,-200.58 403.63,-191.13"/>
<polygon fill="black" stroke="black" points="406.16,-193.55 411.08,-184.16 401.38,-188.44 406.16,-193.55"/>
<text text-anchor="middle" x="410.24" y="-205.45" font-family="Helvetica,sans-Serif" font-size="14.00">False</text>
</g>
<!-- 2 -->
<g id="node3" class="node">
<title>2</title>
<polygon fill="none" stroke="black" points="190.5,-110 54.5,-110 54.5,-72 190.5,-72 190.5,-110"/>
<text text-anchor="middle" x="122.5" y="-94.8" font-family="Helvetica,sans-Serif" font-size="14.00">LightGBM &lt;= 0.045</text>
<text text-anchor="middle" x="122.5" y="-79.8" font-family="Helvetica,sans-Serif" font-size="14.00">class = 0</text>
</g>
<!-- 1&#45;&gt;2 -->
<g id="edge2" class="edge">
<title>1&#45;&gt;2</title>
<path fill="none" stroke="black" d="M237.64,-145.83C217.23,-136.29 192.03,-124.51 170.41,-114.4"/>
<polygon fill="black" stroke="black" points="171.62,-111.1 161.08,-110.04 168.66,-117.44 171.62,-111.1"/>
</g>
<!-- 5 -->
<g id="node6" class="node">
<title>5</title>
<polygon fill="none" stroke="black" points="344.5,-110 208.5,-110 208.5,-72 344.5,-72 344.5,-110"/>
<text text-anchor="middle" x="276.5" y="-94.8" font-family="Helvetica,sans-Serif" font-size="14.00">LightGBM &lt;= 0.254</text>
<text text-anchor="middle" x="276.5" y="-79.8" font-family="Helvetica,sans-Serif" font-size="14.00">class = 0</text>
</g>
<!-- 1&#45;&gt;5 -->
<g id="edge5" class="edge">
<title>1&#45;&gt;5</title>
<path fill="none" stroke="black" d="M276.5,-145.83C276.5,-138.13 276.5,-128.97 276.5,-120.42"/>
<polygon fill="black" stroke="black" points="280,-120.41 276.5,-110.41 273,-120.41 280,-120.41"/>
</g>
<!-- 3 -->
<g id="node4" class="node">
<title>3</title>
<polygon fill="none" stroke="black" points="71,-36 0,-36 0,0 71,0 71,-36"/>
<text text-anchor="middle" x="35.5" y="-14.3" font-family="Helvetica,sans-Serif" font-size="14.00">class = 0</text>
</g>
<!-- 2&#45;&gt;3 -->
<g id="edge3" class="edge">
<title>2&#45;&gt;3</title>
<path fill="none" stroke="black" d="M100.1,-71.72C89.13,-62.77 75.81,-51.9 64.12,-42.36"/>
<polygon fill="black" stroke="black" points="66.3,-39.61 56.34,-36 61.87,-45.04 66.3,-39.61"/>
</g>
<!-- 4 -->
<g id="node5" class="node">
<title>4</title>
<polygon fill="none" stroke="black" points="160,-36 89,-36 89,0 160,0 160,-36"/>
<text text-anchor="middle" x="124.5" y="-14.3" font-family="Helvetica,sans-Serif" font-size="14.00">class = 0</text>
</g>
<!-- 2&#45;&gt;4 -->
<g id="edge4" class="edge">
<title>2&#45;&gt;4</title>
<path fill="none" stroke="black" d="M123.02,-71.72C123.23,-63.97 123.49,-54.79 123.73,-46.27"/>
<polygon fill="black" stroke="black" points="127.24,-46.1 124.02,-36 120.24,-45.9 127.24,-46.1"/>
</g>
<!-- 6 -->
<g id="node7" class="node">
<title>6</title>
<polygon fill="none" stroke="black" points="257,-36 186,-36 186,0 257,0 257,-36"/>
<text text-anchor="middle" x="221.5" y="-14.3" font-family="Helvetica,sans-Serif" font-size="14.00">class = 0</text>
</g>
<!-- 5&#45;&gt;6 -->
<g id="edge6" class="edge">
<title>5&#45;&gt;6</title>
<path fill="none" stroke="black" d="M262.34,-71.72C255.81,-63.29 247.95,-53.15 240.88,-44.02"/>
<polygon fill="black" stroke="black" points="243.56,-41.77 234.67,-36 238.03,-46.05 243.56,-41.77"/>
</g>
<!-- 7 -->
<g id="node8" class="node">
<title>7</title>
<polygon fill="none" stroke="black" points="346,-36 275,-36 275,0 346,0 346,-36"/>
<text text-anchor="middle" x="310.5" y="-14.3" font-family="Helvetica,sans-Serif" font-size="14.00">class = 0</text>
</g>
<!-- 5&#45;&gt;7 -->
<g id="edge7" class="edge">
<title>5&#45;&gt;7</title>
<path fill="none" stroke="black" d="M285.26,-71.72C289.13,-63.63 293.75,-53.97 297.98,-45.14"/>
<polygon fill="black" stroke="black" points="301.2,-46.53 302.36,-36 294.88,-43.51 301.2,-46.53"/>
</g>
<!-- 9 -->
<g id="node10" class="node">
<title>9</title>
<polygon fill="none" stroke="black" points="498.5,-110 362.5,-110 362.5,-72 498.5,-72 498.5,-110"/>
<text text-anchor="middle" x="430.5" y="-94.8" font-family="Helvetica,sans-Serif" font-size="14.00">LightGBM &lt;= 0.577</text>
<text text-anchor="middle" x="430.5" y="-79.8" font-family="Helvetica,sans-Serif" font-size="14.00">class = 1</text>
</g>
<!-- 8&#45;&gt;9 -->
<g id="edge9" class="edge">
<title>8&#45;&gt;9</title>
<path fill="none" stroke="black" d="M430.5,-145.83C430.5,-138.13 430.5,-128.97 430.5,-120.42"/>
<polygon fill="black" stroke="black" points="434,-120.41 430.5,-110.41 427,-120.41 434,-120.41"/>
</g>
<!-- 12 -->
<g id="node13" class="node">
<title>12</title>
<polygon fill="none" stroke="black" points="652.5,-110 516.5,-110 516.5,-72 652.5,-72 652.5,-110"/>
<text text-anchor="middle" x="584.5" y="-94.8" font-family="Helvetica,sans-Serif" font-size="14.00">LightGBM &lt;= 0.892</text>
<text text-anchor="middle" x="584.5" y="-79.8" font-family="Helvetica,sans-Serif" font-size="14.00">class = 1</text>
</g>
<!-- 8&#45;&gt;12 -->
<g id="edge12" class="edge">
<title>8&#45;&gt;12</title>
<path fill="none" stroke="black" d="M469.36,-145.83C489.77,-136.29 514.97,-124.51 536.59,-114.4"/>
<polygon fill="black" stroke="black" points="538.34,-117.44 545.92,-110.04 535.38,-111.1 538.34,-117.44"/>
</g>
<!-- 10 -->
<g id="node11" class="node">
<title>10</title>
<polygon fill="none" stroke="black" points="439,-36 368,-36 368,0 439,0 439,-36"/>
<text text-anchor="middle" x="403.5" y="-14.3" font-family="Helvetica,sans-Serif" font-size="14.00">class = 0</text>
</g>
<!-- 9&#45;&gt;10 -->
<g id="edge10" class="edge">
<title>9&#45;&gt;10</title>
<path fill="none" stroke="black" d="M423.55,-71.72C420.5,-63.72 416.88,-54.18 413.55,-45.42"/>
<polygon fill="black" stroke="black" points="416.79,-44.11 409.97,-36 410.25,-46.59 416.79,-44.11"/>
</g>
<!-- 11 -->
<g id="node12" class="node">
<title>11</title>
<polygon fill="none" stroke="black" points="528,-36 457,-36 457,0 528,0 528,-36"/>
<text text-anchor="middle" x="492.5" y="-14.3" font-family="Helvetica,sans-Serif" font-size="14.00">class = 1</text>
</g>
<!-- 9&#45;&gt;11 -->
<g id="edge11" class="edge">
<title>9&#45;&gt;11</title>
<path fill="none" stroke="black" d="M446.47,-71.72C453.9,-63.2 462.86,-52.94 470.9,-43.74"/>
<polygon fill="black" stroke="black" points="473.71,-45.84 477.65,-36 468.44,-41.23 473.71,-45.84"/>
</g>
<!-- 13 -->
<g id="node14" class="node">
<title>13</title>
<polygon fill="none" stroke="black" points="619,-36 548,-36 548,0 619,0 619,-36"/>
<text text-anchor="middle" x="583.5" y="-14.3" font-family="Helvetica,sans-Serif" font-size="14.00">class = 1</text>
</g>
<!-- 12&#45;&gt;13 -->
<g id="edge13" class="edge">
<title>12&#45;&gt;13</title>
<path fill="none" stroke="black" d="M584.24,-71.72C584.13,-63.97 584,-54.79 583.88,-46.27"/>
<polygon fill="black" stroke="black" points="587.38,-45.95 583.74,-36 580.38,-46.05 587.38,-45.95"/>
</g>
<!-- 14 -->
<g id="node15" class="node">
<title>14</title>
<polygon fill="none" stroke="black" points="708,-36 637,-36 637,0 708,0 708,-36"/>
<text text-anchor="middle" x="672.5" y="-14.3" font-family="Helvetica,sans-Serif" font-size="14.00">class = 1</text>
</g>
<!-- 12&#45;&gt;14 -->
<g id="edge14" class="edge">
<title>12&#45;&gt;14</title>
<path fill="none" stroke="black" d="M607.16,-71.72C618.25,-62.77 631.73,-51.9 643.55,-42.36"/>
<polygon fill="black" stroke="black" points="645.84,-45.01 651.43,-36 641.44,-39.56 645.84,-45.01"/>
</g>
</g>
</svg>