<?xml version="1.0" encoding="UTF-8" standalone="no"?>
<!DOCTYPE svg PUBLIC "-//W3C//DTD SVG 1.1//EN"
 "http://www.w3.org/Graphics/SVG/1.1/DTD/svg11.dtd">
<!-- Generated by graphviz version 2.50.0 (0)
 -->
<!-- Pages: 1 -->
<svg width="174pt" height="261pt"
 viewBox="0.00 0.00 174.00 261.00" xmlns="http://www.w3.org/2000/svg" xmlns:xlink="http://www.w3.org/1999/xlink">
<g id="graph0" class="graph" transform="scale(1 1) rotate(0) translate(4 257)">
<polygon fill="white" stroke="transparent" points="-4,4 -4,-257 170,-257 170,4 -4,4"/>
<g id="clust1" class="cluster">
<title>cluster_0</title>
<polygon fill="none" stroke="white" points="8,-8 8,-245 60,-245 60,-8 8,-8"/>
<text text-anchor="middle" x="34" y="-229.8" font-family="Times,serif" font-size="14.00">inputs</text>
</g>
<g id="clust2" class="cluster">
<title>cluster_2</title>
<polygon fill="none" stroke="white" points="106,-89 106,-164 158,-164 158,-89 106,-89"/>
<text text-anchor="middle" x="132" y="-148.8" font-family="Times,serif" font-size="14.00">output</text>
</g>
<!-- x[0] -->
<g id="node1" class="node">
<title>x[0]</title>
<ellipse fill="none" stroke="black" cx="34" cy="-196" rx="18" ry="18"/>
<text text-anchor="middle" x="34" y="-192.3" font-family="Times,serif" font-size="14.00">x[0]</text>
</g>
<!-- y -->
<g id="node5" class="node">
<title>y</title>
<ellipse fill="none" stroke="black" cx="132" cy="-115" rx="18" ry="18"/>
<text text-anchor="middle" x="132" y="-111.3" font-family="Times,serif" font-size="14.00">y</text>
</g>
<!-- x[0]&#45;&gt;y -->
<g id="edge1" class="edge">
<title>x[0]&#45;&gt;y</title>
<path fill="none" stroke="black" d="M48.35,-184.74C64.33,-171.26 91.27,-148.52 110.03,-132.69"/>
<polygon fill="black" stroke="black" points="112.38,-135.29 117.76,-126.17 107.86,-129.94 112.38,-135.29"/>
<text text-anchor="middle" x="83" y="-171.8" font-family="Times,serif" font-size="14.00">w[0]</text>
</g>
<!-- x[1] -->
<g id="node2" class="node">
<title>x[1]</title>
<ellipse fill="none" stroke="black" cx="34" cy="-142" rx="18" ry="18"/>
<text text-anchor="middle" x="34" y="-138.3" font-family="Times,serif" font-size="14.00">x[1]</text>
</g>
<!-- x[1]&#45;&gt;y -->
<g id="edge2" class="edge">
<title>x[1]&#45;&gt;y</title>
<path fill="none" stroke="black" d="M51.72,-137.3C66.31,-133.19 87.74,-127.17 104.63,-122.42"/>
<polygon fill="black" stroke="black" points="105.79,-125.73 114.47,-119.65 103.9,-118.99 105.79,-125.73"/>
<text text-anchor="middle" x="83" y="-134.8" font-family="Times,serif" font-size="14.00">w[1]</text>
</g>
<!-- x[2] -->
<g id="node3" class="node">
<title>x[2]</title>
<ellipse fill="none" stroke="black" cx="34" cy="-88" rx="18" ry="18"/>
<text text-anchor="middle" x="34" y="-84.3" font-family="Times,serif" font-size="14.00">x[2]</text>
</g>
<!-- x[2]&#45;&gt;y -->
<g id="edge3" class="edge">
<title>x[2]&#45;&gt;y</title>
<path fill="none" stroke="black" d="M51.72,-92.7C66.31,-96.81 87.74,-102.83 104.63,-107.58"/>
<polygon fill="black" stroke="black" points="103.9,-111.01 114.47,-110.35 105.79,-104.27 103.9,-111.01"/>
<text text-anchor="middle" x="83" y="-107.8" font-family="Times,serif" font-size="14.00">w[2]</text>
</g>
<!-- x[3] -->
<g id="node4" class="node">
<title>x[3]</title>
<ellipse fill="none" stroke="black" cx="34" cy="-34" rx="18" ry="18"/>
<text text-anchor="middle" x="34" y="-30.3" font-family="Times,serif" font-size="14.00">x[3]</text>
</g>
<!-- x[3]&#45;&gt;y -->
<g id="edge4" class="edge">
<title>x[3]&#45;&gt;y</title>
<path fill="none" stroke="black" d="M48.35,-45.26C64.33,-58.74 91.27,-81.48 110.03,-97.31"/>
<polygon fill="black" stroke="black" points="107.86,-100.06 117.76,-103.83 112.38,-94.71 107.86,-100.06"/>
<text text-anchor="middle" x="83" y="-82.8" font-family="Times,serif" font-size="14.00">w[3]</text>
</g>
</g>
</svg>