<?xml version="1.0" encoding="UTF-8" standalone="no"?>
<!DOCTYPE svg PUBLIC "-//W3C//DTD SVG 1.1//EN"
 "http://www.w3.org/Graphics/SVG/1.1/DTD/svg11.dtd">
<!-- Generated by graphviz version 2.50.0 (0)
 -->
<!-- Title: Tree Pages: 1 -->
<svg width="437pt" height="192pt"
 viewBox="0.00 0.00 437.00 192.00" xmlns="http://www.w3.org/2000/svg" xmlns:xlink="http://www.w3.org/1999/xlink">
<g id="graph0" class="graph" transform="scale(1 1) rotate(0) translate(4 188)">
<title>Tree</title>
<polygon fill="white" stroke="transparent" points="-4,4 -4,-188 433,-188 433,4 -4,4"/>
<!-- 0 -->
<g id="node1" class="node">
<title>0</title>
<polygon fill="none" stroke="black" points="312.5,-184 115.5,-184 115.5,-146 312.5,-146 312.5,-184"/>
<text text-anchor="middle" x="214" y="-168.8" font-family="Helvetica,sans-Serif" font-size="14.00">x1_Married&#45;civ&#45;spouse &lt;= 0.5</text>
<text text-anchor="middle" x="214" y="-153.8" font-family="Helvetica,sans-Serif" font-size="14.00">class = 0.0</text>
</g>
<!-- 1 -->
<g id="node2" class="node">
<title>1</title>
<polygon fill="none" stroke="black" points="201,-110 33,-110 33,-72 201,-72 201,-110"/>
<text text-anchor="middle" x="117" y="-94.8" font-family="Helvetica,sans-Serif" font-size="14.00">x1_Never&#45;married &lt;= 0.5</text>
<text text-anchor="middle" x="117" y="-79.8" font-family="Helvetica,sans-Serif" font-size="14.00">class = 0.0</text>
</g>
<!-- 0&#45;&gt;1 -->
<g id="edge1" class="edge">
<title>0&#45;&gt;1</title>
<path fill="none" stroke="black" d="M189.52,-145.83C177.46,-136.88 162.75,-125.96 149.73,-116.3"/>
<polygon fill="black" stroke="black" points="151.59,-113.31 141.47,-110.16 147.41,-118.93 151.59,-113.31"/>
<text text-anchor="middle" x="145.13" y="-131.19" font-family="Helvetica,sans-Serif" font-size="14.00">True</text>
</g>
<!-- 4 -->
<g id="node5" class="node">
<title>4</title>
<polygon fill="none" stroke="black" points="402.5,-110 219.5,-110 219.5,-72 402.5,-72 402.5,-110"/>
<text text-anchor="middle" x="311" y="-94.8" font-family="Helvetica,sans-Serif" font-size="14.00">x2_Exec&#45;managerial &lt;= 0.5</text>
<text text-anchor="middle" x="311" y="-79.8" font-family="Helvetica,sans-Serif" font-size="14.00">class = 0.0</text>
</g>
<!-- 0&#45;&gt;4 -->
<g id="edge4" class="edge">
<title>0&#45;&gt;4</title>
<path fill="none" stroke="black" d="M238.48,-145.83C250.54,-136.88 265.25,-125.96 278.27,-116.3"/>
<polygon fill="black" stroke="black" points="280.59,-118.93 286.53,-110.16 276.41,-113.31 280.59,-118.93"/>
<text text-anchor="middle" x="282.87" y="-131.19" font-family="Helvetica,sans-Serif" font-size="14.00">False</text>
</g>
<!-- 2 -->
<g id="node3" class="node">
<title>2</title>
<polygon fill="none" stroke="black" points="82,-36 0,-36 0,0 82,0 82,-36"/>
<text text-anchor="middle" x="41" y="-14.3" font-family="Helvetica,sans-Serif" font-size="14.00">class = 0.0</text>
</g>
<!-- 1&#45;&gt;2 -->
<g id="edge2" class="edge">
<title>1&#45;&gt;2</title>
<path fill="none" stroke="black" d="M97.43,-71.72C88.04,-62.94 76.66,-52.31 66.59,-42.91"/>
<polygon fill="black" stroke="black" points="68.9,-40.27 59.2,-36 64.12,-45.39 68.9,-40.27"/>
</g>
<!-- 3 -->
<g id="node4" class="node">
<title>3</title>
<polygon fill="none" stroke="black" points="182,-36 100,-36 100,0 182,0 182,-36"/>
<text text-anchor="middle" x="141" y="-14.3" font-family="Helvetica,sans-Serif" font-size="14.00">class = 0.0</text>
</g>
<!-- 1&#45;&gt;3 -->
<g id="edge3" class="edge">
<title>1&#45;&gt;3</title>
<path fill="none" stroke="black" d="M123.18,-71.72C125.86,-63.8 129.04,-54.38 131.97,-45.71"/>
<polygon fill="black" stroke="black" points="135.37,-46.6 135.25,-36 128.73,-44.36 135.37,-46.6"/>
</g>
<!-- 5 -->
<g id="node6" class="node">
<title>5</title>
<polygon fill="none" stroke="black" points="329,-36 247,-36 247,0 329,0 329,-36"/>
<text text-anchor="middle" x="288" y="-14.3" font-family="Helvetica,sans-Serif" font-size="14.00">class = 0.0</text>
</g>
<!-- 4&#45;&gt;5 -->
<g id="edge5" class="edge">
<title>4&#45;&gt;5</title>
<path fill="none" stroke="black" d="M305.08,-71.72C302.51,-63.8 299.46,-54.38 296.65,-45.71"/>
<polygon fill="black" stroke="black" points="299.92,-44.44 293.51,-36 293.26,-46.6 299.92,-44.44"/>
</g>
<!-- 6 -->
<g id="node7" class="node">
<title>6</title>
<polygon fill="none" stroke="black" points="429,-36 347,-36 347,0 429,0 429,-36"/>
<text text-anchor="middle" x="388" y="-14.3" font-family="Helvetica,sans-Serif" font-size="14.00">class = 1.0</text>
</g>
<!-- 4&#45;&gt;6 -->
<g id="edge6" class="edge">
<title>4&#45;&gt;6</title>
<path fill="none" stroke="black" d="M330.83,-71.72C340.35,-62.94 351.87,-52.31 362.07,-42.91"/>
<polygon fill="black" stroke="black" points="364.58,-45.36 369.56,-36 359.84,-40.21 364.58,-45.36"/>
</g>
</g>
</svg>