<?xml version="1.0" encoding="UTF-8" standalone="no"?>
<!-- Created with Inkscape (http://www.inkscape.org/) -->

<svg
   width="248.04047mm"
   height="62.821045mm"
   viewBox="0 0 248.04047 62.821045"
   version="1.1"
   id="svg1"
   xml:space="preserve"
   inkscape:version="1.3 (0e150ed6c4, 2023-07-21)"
   sodipodi:docname="ece4420.svg"
   inkscape:export-filename="ece4420-2024.png"
   inkscape:export-xdpi="96"
   inkscape:export-ydpi="96"
   xmlns:inkscape="http://www.inkscape.org/namespaces/inkscape"
   xmlns:sodipodi="http://sodipodi.sourceforge.net/DTD/sodipodi-0.dtd"
   xmlns="http://www.w3.org/2000/svg"
   xmlns:svg="http://www.w3.org/2000/svg"><sodipodi:namedview
     id="namedview1"
     pagecolor="#ffffff"
     bordercolor="#000000"
     borderopacity="0.25"
     inkscape:showpageshadow="2"
     inkscape:pageopacity="0.0"
     inkscape:pagecheckerboard="0"
     inkscape:deskcolor="#d1d1d1"
     inkscape:document-units="mm"
     inkscape:zoom="0.48567463"
     inkscape:cx="835.9506"
     inkscape:cy="-120.45101"
     inkscape:window-width="1920"
     inkscape:window-height="1009"
     inkscape:window-x="1912"
     inkscape:window-y="-8"
     inkscape:window-maximized="1"
     inkscape:current-layer="g2"
     showgrid="false" /><defs
     id="defs1" /><g
     inkscape:label="Layer 1"
     inkscape:groupmode="layer"
     id="layer1"
     transform="translate(-3.4014771,-16.356018)"><path
       d="m 38.407344,16.356018 c -0.01588,0.03711 -0.185208,0.09247 -0.198437,0.131783 -0.06615,0.18362 0.04498,0.33004 0.06614,0.461987 -0.07144,0.01429 -0.105833,0.121311 -0.132291,0.131762 -0.238124,0.08054 -0.54504,-0.06183 -0.791101,0 -0.132292,0.0308 -0.320145,0.30136 -0.460374,0.330226 -0.306915,0.0599 -0.470957,-0.140547 -0.727602,0.06562 -0.124353,0.09483 -0.391582,0.934161 -0.460373,1.121882 -0.07144,-0.03903 -0.124354,0.02889 -0.198437,0 -0.07408,-0.02884 -0.171973,-0.226932 -0.264577,-0.264053 -0.603248,-0.245188 -0.579436,0.251698 -0.857247,0.461988 -0.100542,0.07416 -0.275166,0.07416 -0.396874,0.131841 0,0 -0.04763,-0.195976 -0.06615,-0.264133 0.07937,-0.07202 0.298979,-0.15224 0.330728,-0.26355 0.01852,-0.07422 -0.03175,-0.196162 0,-0.26408 -0.05821,-0.04535 -0.116416,-0.03913 -0.132291,-0.131762 -0.121708,0 -0.277811,0.02691 -0.394228,0 -0.06614,0.09072 -0.24077,0.222487 -0.264582,0.329696 -0.01323,0.04535 0.0291,0.152559 0,0.197908 -0.05027,0.07011 -0.306916,0.123719 -0.330728,0.197934 -0.0979,0.298793 0.06615,0.52554 0.132291,0.725565 H 33.12892 c -0.09525,0.03096 -0.291041,0.377559 -0.264583,0.528106 0.01058,0.05371 0.177271,0.158485 0.198437,0.197908 0.02381,0.04524 0.03175,0.232832 0.06615,0.263524 0.05556,0.04736 0.153458,0.0064 0.198437,0.06615 -0.116417,0.249237 -0.105833,0.359038 -0.198437,0.659868 -0.0344,-0.02275 -0.161395,0 -0.198437,0 -0.171979,-0.366976 -0.214312,-0.23098 -0.129645,-0.791631 -0.06615,-0.03096 -0.206375,-0.18362 -0.264583,-0.197907 -0.198437,-0.05371 -0.468311,0.05583 -0.661456,0 -0.0635,-0.02064 -0.103187,-0.239447 -0.195791,-0.264054 -0.07408,-0.02064 -0.317499,0.05186 -0.264582,0.06615 -0.07937,0.140229 -0.177271,0.27596 -0.264583,0.461432 -0.01058,0.02064 -0.124354,0.04736 -0.132291,0.06615 -0.04233,0.107156 0.01323,0.319351 -0.06615,0.395816 -0.121708,0.111389 -0.333374,0.02884 -0.460373,0.131762 -0.09525,0.07197 -0.275166,1.028961 -0.132291,1.121829 0.203728,0.132027 0.32279,0.0064 0.463019,-0.06615 0.103187,-0.05556 0.04498,-0.127793 0.0635,-0.264053 0.04498,0.01429 0.198437,0.06615 0.198437,0.06615 -0.03704,0.197907 -0.05027,0.237595 -0.06615,0.462225 -0.07144,0.01429 -0.103187,0.121179 -0.132291,0.131762 -0.198437,0.06773 -0.518582,-0.05186 -0.724956,0 l -0.06615,0.131762 c -0.105833,0.06773 -0.201082,0.0042 -0.328082,0.06615 0.07144,-0.352688 0.105833,-0.556946 0.195791,-0.85804 -0.121708,-0.05159 -0.03175,-0.0058 -0.06615,-0.131762 -0.31644,-0.02461 -0.594781,-0.127794 -0.790572,0.131762 -0.257703,0.336284 -0.162718,0.676272 0,0.989803 -0.132027,0.158484 -0.360626,0.344221 -0.395815,0.593723 -0.01244,0.07832 0.03916,0.260084 0,0.330198 -0.01429,0.02064 -0.298449,0.05741 -0.329405,0.06562 -0.02064,0.127794 -0.01667,0.292893 -0.06641,0.461961 0.01217,0.0019 0.237331,0.04286 0.264054,0.06562 0.07223,0.0598 0.06376,0.276753 0.131762,0.330199 -0.144198,-0.0042 -0.882383,0.06376 -1.05542,0.197908 -0.165099,0.123824 0.08678,0.795599 0,1.055155 -0.04736,0.138112 -0.257703,0.27834 -0.330198,0.396079 -0.298714,0.478101 -0.517259,0.838991 -0.857248,1.253592 -0.05794,0.06773 -0.230715,0.132027 -0.263524,0.264053 -0.206109,0.810152 0.197908,0.516994 0.395816,0.593194 0.04524,0.01667 0.257703,0.212724 0.329669,0.264053 -0.121443,0.257968 -0.420421,0.665954 -0.197907,1.055684 0.03916,0.07011 0.222778,0.109008 0.264053,0.197379 0.04313,0.0971 -0.09287,0.04789 -0.06615,0.198437 0.06403,0.387348 0.496886,0.395815 0.857777,0.395815 -0.03916,0.01429 -0.251618,0.193674 -0.264054,0.197643 -0.637114,0.187589 -0.542394,-0.09049 -0.79163,0.528107 -0.29501,-0.389995 -0.515142,-0.482863 -1.121301,-0.593723 -0.04974,0.102922 -0.121972,0.127793 -0.198437,0.197907 0.119592,0.298978 0.123825,0.443176 0.264054,0.725485 -0.105304,0.07011 -0.317235,0.163248 -0.395816,0.264054 -0.07435,0.09102 -0.05133,0.253205 -0.131762,0.329669 -0.068,0.06191 -0.18362,0.01482 -0.264053,0.06615 -0.0844,0.05159 -0.200024,0.24712 -0.264053,0.32967 0.02672,0.04524 0,0.208491 0,0.264053 0.334167,0.08467 0.373326,0.121443 0.79163,0.06562 -0.03678,0.07223 0.0291,0.119592 0,0.197908 l -0.131762,0.06615 c -0.14208,0.216428 -0.07408,0.346338 -0.131762,0.659868 0.04154,0.02249 0.238918,0.09657 0.263524,0.131762 0.185737,0.255322 0.282575,0.47228 0.461961,0.72575 -0.12991,0.08652 -0.482333,0.238918 -0.527577,0.395815 -0.03519,0.113506 0.03281,0.214577 0,0.330199 0.172772,0.04524 0.4781,0.105039 0.659869,0.197908 0.03889,0.01826 0.137847,0.180974 0.197907,0.197378 0.115358,0.02884 0.212195,-0.03096 0.32967,0 -0.03889,0.150548 -0.07435,0.297126 -0.131762,0.528107 -0.165099,0.0063 -0.185472,-0.127793 -0.395815,-0.06562 -0.03942,0.01005 -0.13626,0.166687 -0.197908,0.197379 0.251618,0.468046 -0.03148,0.340253 0.659339,0.395815 0.06377,0.175418 0.135996,0.377295 0.197908,0.527578 h 0.06615 c 0.05133,0.278605 -0.08864,0.375442 -0.06615,0.659868 0.01667,0.237331 0.22516,0.713314 0.264053,0.923658 0.02699,0.152399 -0.05133,0.315646 0,0.46196 0.0085,0.02672 0.115358,0.0598 0.131762,0.131763 0.546628,-0.193939 0.1651,0.113505 0.527578,-0.32967 0.07249,0.03519 0.119856,-0.03122 0.198437,0 0.01852,0.0061 0.154516,0.187589 0.197907,0.197907 0.284426,0.06403 0.325437,-0.121707 0.593459,0 0.290776,0.131763 -0.03096,0.328083 -0.06615,0.461961 -0.02064,0.07408 0.02672,0.189177 0,0.263525 0.486567,0.348455 0.665954,0.55086 1.384295,0.528106 0.03704,-0.09075 0.06615,-0.24368 0.132292,-0.330199 0.05027,-0.07011 0.214311,-0.07408 0.264582,-0.131762 v 0.725485 c 0.01587,0.08043 0.383645,0.527842 0.463019,0.659869 0.177271,-0.01429 0.343958,0 0.526519,0 0.02117,-0.04313 0.0926,-0.255851 0.132292,-0.264053 0.592664,-0.133879 0.751414,0.511437 1.055684,0.593723 0.187853,0.04948 0.293686,-0.03678 0.460373,-0.06562 0.06615,0.07832 0.0979,0.294745 0.198437,0.32967 0.07144,0.02302 0.195791,-0.03704 0.264582,0 0.01323,-0.07012 0.121708,-0.104775 0.132292,-0.131762 0.03704,-0.113242 -0.0344,-0.216693 0,-0.330199 -0.06085,-0.01244 -0.354541,-0.02011 -0.46302,-0.06562 -0.11377,-0.05133 -0.164041,-0.362742 -0.261936,-0.395815 h -0.132292 c -0.03704,-0.07223 0.0344,-0.196056 0,-0.264053 0.04498,-0.07197 0.15875,-0.18362 0.195791,-0.264053 0.08731,0.07832 0.27252,0.09075 0.330728,0.197907 0.0344,0.06191 -0.02117,0.193939 0,0.264053 0.02646,0.101071 0.206375,0.181504 0.264583,0.264054 0.124354,-0.02461 0.267228,0.02884 0.394228,0 0.227541,-0.05345 0.283103,-0.317764 0.59531,-0.330199 0.357187,-0.0164 0.693206,0.328082 1.187975,0.197908 0.33602,-0.09075 0.254,-0.523345 0.460374,-0.65934 0.232832,-0.154516 0.555623,-0.03969 0.857247,-0.132291 0.07408,-0.02487 0.187853,-0.162718 0.264582,-0.197908 0,-0.05768 -0.02646,-0.214047 0,-0.263524 0.0344,-0.07197 0.153458,-0.04577 0.198437,-0.132291 0.309562,0.09895 0.701144,0.315911 1.055684,0.132291 0.08467,-0.04551 0.127,-0.278605 0.198437,-0.330199 0.06615,-0.05371 0.187854,-0.02858 0.264582,-0.06562 0.0635,-0.03519 0.195791,-0.231245 0.261937,-0.264054 0.156104,-0.08255 0.312207,-0.07408 0.463019,-0.131762 0,0 0.08467,-0.309296 0.06615,-0.395815 -0.02646,-0.10107 -0.246062,-0.18997 -0.264582,-0.264318 -0.05027,-0.193674 0.08467,-0.166687 0.06614,-0.32967 0.0926,-0.06773 0.132291,-0.169068 0.198437,-0.264053 0.256645,0.03519 0.550331,0.115623 0.791101,0 0.142875,-0.07197 0.100542,-0.21828 0.198437,-0.329669 0.129646,-0.154517 0.43127,-0.28231 0.592665,-0.395816 -0.0291,-0.214312 -0.09525,-0.43074 -0.06615,-0.593723 0.02646,-0.148431 0.264583,-0.288659 0.330728,-0.395815 0.08467,-0.142081 0.06085,-0.245268 0.132292,-0.395815 -0.02381,-0.01667 -0.1905,-0.107686 -0.198437,-0.132292 -0.03175,-0.0762 0.03704,-0.127528 0,-0.197378 0.526519,-0.373326 0.624414,-0.57335 0,-0.923922 0.391582,-0.203993 0.730247,-0.41222 1.121831,-0.593459 -0.03175,-0.08652 0,-0.23733 0,-0.330198 -0.07937,-0.03678 -0.193147,-0.175154 -0.264584,-0.197908 -0.264583,-0.08228 -0.425978,0.0085 -0.592665,-0.131762 -0.07144,-0.05953 -0.03969,-0.21881 -0.06614,-0.330199 -0.148167,0.05159 -0.100542,-0.183091 -0.132292,-0.263524 0.01058,0 0.36777,0.02434 0.264583,0.06562 0.423332,-0.04921 1.164158,-0.100541 0.791098,-0.659339 -0.03439,-0.05133 -0.248704,-0.0807 -0.264579,-0.132291 -0.03969,-0.129646 0.116416,-0.31697 0.06614,-0.527578 -0.04233,-0.166951 -0.288394,-0.199759 -0.330728,-0.263524 -0.134937,-0.206374 -0.195791,-0.26617 0.06615,-0.395815 -0.03175,-0.451642 -0.05556,-0.433386 0.198437,-0.660133 0.01323,-0.01455 0.17727,0 0.198437,0 0.01058,-0.07408 0.0053,-0.377295 0.06614,-0.461961 l 0.39422,-0.197379 c -0.09,-0.276488 -0.19579,-0.542658 -0.13229,-0.726014 0.0185,-0.05345 0.18786,-0.214047 0.19844,-0.263524 0.0265,-0.152929 -0.09,-0.09737 -0.0661,-0.198437 -0.0741,0.01667 -0.25664,0.06615 -0.26458,0.06615 -0.164042,0.554564 -0.10054,0.746122 -0.460375,0.264053 -0.174624,0.02064 -0.153458,0.08414 -0.264582,0.131762 0,0 -0.0079,-0.414336 0,-0.527577 0.529165,-0.121708 0.330728,-0.03096 0.595307,-0.395816 0.0582,0.04127 0.127,-0.02699 0.19844,0 0.0662,0.02672 0.082,0.228864 0.12965,0.264054 0.30691,0.216428 0.71701,0.068 0.99218,0 -0.0318,-0.128058 0.0344,-0.27252 0,-0.395816 -0.0238,-0.07646 -0.24342,-0.231245 -0.26458,-0.330199 -0.0185,-0.07435 -0.037,-0.362742 0.0661,-0.329669 v -0.131762 c -0.0159,-0.04128 -0.1905,-0.177271 -0.19844,-0.197908 -0.0159,-0.03942 0.0159,-0.162983 0,-0.197908 0.48948,-0.214576 0.55298,-0.251882 0.7911,-0.726278 l 0.13229,-0.131763 c 0.0212,-0.144197 -0.11641,-0.253734 -0.0662,-0.46196 0.0238,-0.115358 0.24342,-0.257704 0.26459,-0.395816 0.0185,-0.146578 -0.11113,-0.30718 -0.0661,-0.527577 0.0265,-0.132027 0.29897,-0.354276 0.32808,-0.461432 0.0397,-0.144462 -0.0238,-0.315647 0,-0.461961 -0.43127,-0.253734 -0.41011,-0.146579 -0.46038,-0.791631 0.10584,-0.06826 0.0397,-0.05794 0.0661,-0.197907 h 0.1323 c 0.005,0.131762 -0.0132,0.331522 0,0.527577 0.0106,-0.0024 0.36512,-0.01217 0.26193,-0.06562 0.0265,-0.07832 0.13229,-0.338136 0.19844,-0.395815 0.008,-0.01032 0.003,-0.185737 0,-0.197908 -0.0264,-0.107429 -0.19575,-0.237603 -0.2619,-0.330472 0.0529,-0.08652 0.14817,-0.185208 0.1958,-0.263524 0.0476,-0.08043 0.1852,-0.276489 0.19843,-0.330199 0.0714,-0.313265 -0.127,-0.575202 -0.13229,-0.725485 -0.0106,-0.263789 0.1614,-0.399784 0.13229,-0.725485 l -0.13229,-0.197908 c -0.15081,-0.729718 -0.0318,-0.616477 -0.72495,-0.79163 -0.0318,0.131762 -0.10055,0.37703 -0.1323,0.527577 -0.127,0.03281 -0.082,-0.05768 -0.13229,0.06615 -0.23018,-0.01058 -0.52387,-0.05583 -0.65881,-0.06615 0.0291,-0.505088 -0.005,-0.686327 -0.13229,-1.121406 -0.1905,-0.04318 -0.51858,-0.224922 -0.791099,-0.132291 -0.05027,0.01458 -0.127,0.162744 -0.198437,0.197907 0,0.152585 0.02381,0.307233 0,0.462067 h -0.132291 c -0.06615,-0.138324 0,-0.210184 -0.06615,-0.329775 -0.0926,-0.162983 -0.423328,-0.305461 -0.460369,-0.528133 -0.06615,-0.373273 0.179916,-0.383301 0.132291,-0.725512 -0.01588,-0.09266 -0.579436,-0.841346 -0.661456,-0.857829 -0.365124,-0.07835 -0.418041,0.169227 -0.592665,0.264053 -0.214312,0.111336 -0.463019,0.171159 -0.661456,0.26408 0.108479,0.432936 0.362478,1.238828 -0.460373,1.055208 -0.291041,-0.06596 -0.209021,-0.265641 -0.330729,-0.527604 -0.01852,-0.04315 -0.187853,-0.08834 -0.195791,-0.131762 -0.06085,-0.303212 0.15875,-0.567292 0,-0.85783 -0.09525,-0.16906 -0.333373,-0.117659 -0.529164,-0.197928 z m -19.65927,8.378267 c -0.03704,0.06191 -0.152399,0.01852 -0.197907,0.06615 -0.09472,0.0926 -2.65e-4,0.334168 -0.06615,0.461961 -0.06191,0.115623 -0.410632,0.284691 -0.659868,0.197908 0,0 -0.12356,-0.352689 -0.32967,-0.395816 -0.191822,-0.04127 -0.439207,0.06165 -0.527578,0.06562 l -0.06614,0.528107 -0.32967,0.395815 0.197908,0.06562 c 0.127793,0.195791 0.143933,0.274636 0.263524,0.528371 -0.07011,-0.03307 -0.191293,0.02461 -0.263524,0 -0.226747,-0.07832 -0.47228,-0.746651 -0.726014,-0.85804 -0.321733,-0.144198 -0.875768,-0.127794 -1.253327,-0.197908 -0.06773,0.0926 -0.169069,0.133879 -0.264054,0.197908 0.0024,0 0,0.187589 0,0.197907 0.08255,0.02064 0.105304,0.164835 0,0.131762 -0.01429,-0.004 -0.05503,-0.111124 -0.06562,-0.131762 -0.183356,0 -0.41222,0.0061 -0.593723,0 -0.07832,0.433121 -0.264053,0.6305 -0.461961,0.923657 -0.08017,-0.06191 -0.185737,-0.0061 -0.264053,-0.06562 -0.02672,-0.0209 -0.125413,-0.245797 -0.131763,-0.264054 0.443441,-0.124089 -0.74427,0.02487 -0.264053,0.06615 -0.107156,0.03069 -0.183091,0.0016 -0.263524,0.06562 l -0.395815,0.461961 c -0.103187,0.183356 -0.04974,0.536044 -0.264054,0.659869 -0.09895,0.05556 -0.383644,0.05133 -0.462225,0.06562 -0.32332,0.84931 -0.278076,0.286543 -0.791631,0.527578 -0.0844,0.03731 -0.12356,0.268286 -0.197907,0.330199 -0.06773,0.05133 -0.191293,0.02672 -0.263524,0.06562 l -0.06615,0.131762 c -0.2883952,0.185737 -0.5609152,0.121973 -0.8577772,0.132291 -0.03916,0.0926 -0.0635,0.284427 -0.131762,0.395816 -0.113241,0.17727 -0.350307,0.146578 -0.527577,0.264053 -0.226747,0.146314 -0.764908,1.002238 -0.923393,1.055949 -0.0209,0.0058 -0.278605,-0.07488 -0.39608,-0.06668 -0.243416,0.01455 -0.657752,0.144726 -0.857776,0.198437 0,0.346074 0.02884,0.583404 0.06615,0.857776 -0.1524,-0.03942 0.02275,0.07408 -0.131762,0.06562 L 6.1473358,31.72721 c -0.222514,-0.0598 -0.476169,0.154781 -0.527578,0.264053 -0.109405,0.228864 -0.01648,0.433386 0,0.659869 0.113268,0 0.286543,-0.03493 0.395816,0 -0.0598,0.754589 0.02037,0.764908 -0.659869,0.725485 -0.01841,0.04339 -0.163009,0.167216 -0.197908,0.197908 0.07612,0.25982 0.05805,0.379411 0.132292,0.659868 -0.02889,-0.0042 -0.284797,0.04921 -0.395842,0.06562 0,0 0.02868,-0.341841 -0.659922,0.132291 0.09676,0.728131 -0.241167,0.978955 -0.131762,1.780904 -0.193807,0.11139 -0.416479,0.280458 -0.593776,0.395816 0.02257,0.115358 -0.02474,0.212724 0,0.330199 0.03299,0.165099 0.239341,0.38338 0.26408,0.593723 0.02447,0.229128 -0.0025,0.424654 -0.06615,0.593723 -0.0023,0.0042 -0.131788,0.06562 -0.131788,0.06562 -0.07422,0.408251 0.09027,0.895082 0.131788,1.253856 0.08028,0.02672 0.169042,-0.004 0.197908,0.06615 0.02889,0.07011 -0.03709,0.19341 0,0.263524 -0.04754,0.05583 -0.225027,0.131762 -0.264053,0.197908 -0.214413,0.346338 -0.01011,0.658016 -0.06564,1.055684 0,0 -0.117977,0.05794 -0.132291,0.06615 v 0.131762 c -0.01868,0.103187 -0.08246,0.323585 0,0.527578 0.01622,0.04127 0.160813,0.09525 0.197934,0.132291 v 0.131762 c 0.682252,0.04763 0.688258,0.05371 1.055234,-0.395815 0.04974,0.01667 0.189917,0.07038 0.198437,0.06614 -0.02889,0.09287 -0.124328,0.218281 -0.132291,0.263524 -0.0209,0.0971 0.06615,0.395816 0.06615,0.395816 0.02887,0.02064 0.185551,0.09525 0.197907,0.132291 0.04921,0.152664 -0.01455,0.36433 0,0.528371 -0.6042,-0.280457 -0.997899,-0.222249 -0.72604,0.526519 0.03326,0.0926 -0.0056,0.150812 0.06665,0.198437 0.119591,0.07673 0.302867,-0.0053 0.461484,0.06614 0.04122,0.01852 0.15449,0.254 0.197908,0.264583 0.424708,0.07673 0.595522,-0.351895 0.725538,-0.595311 0.07432,0.03704 0.181212,0.129646 0.264027,0.132292 -0.228944,0.457727 -0.138112,0.388936 0,0.791101 -0.01455,0.0079 0,0.182562 0,0.198437 -0.03519,-0.09525 -0.07223,0.171979 -0.06615,0.198437 0.08467,0.391582 0.626531,0.35454 0.989538,0.330728 -0.02064,0.03175 0.01243,0.158749 0,0.195791 -0.07038,0.17727 -0.502707,0.367769 -0.659339,0.463019 0.03916,0.111125 -0.04127,0.216958 0,0.330728 0.02249,0.06615 0.385496,0.375707 0.461431,0.394228 0.27252,0.06615 0.756706,-0.105833 0.923658,-0.198437 0.06165,-0.0344 0.17092,-0.248707 0.264053,-0.261936 0.209814,-0.03704 0.284161,0.08202 0.461432,0.132291 -0.0042,0 0,0.187853 0,0.195791 -0.822587,0.0926 -1.038222,0.296332 -0.593194,0.923393 0.352688,-0.08996 0.436825,-0.04233 0.791101,-0.129646 0.02699,0.214312 0.08731,0.642935 0.264583,0.724956 0.119326,0.05292 0.325436,-0.01852 0.461432,0 0.7011432,0.09525 0.7175472,0.396874 1.1874462,-0.264582 0.338136,0.03704 0.546362,0.09525 0.79163,0 l 0.131762,-0.132292 c 0.220927,-0.0291 0.447674,0.119062 0.593988,0.132292 0.187589,0.01323 0.253734,-0.06615 0.395815,-0.06615 0.04127,-0.166687 0.07408,-0.312207 0.131762,-0.526519 -0.105039,-0.08467 -0.212195,-0.127 -0.329669,-0.198437 v -0.132293 c 0.218545,-0.103187 0.465929,-0.264583 0.659868,-0.330728 0.226747,-0.07408 0.579436,-0.105833 0.791631,0 l 0.131762,0.132291 c 0.339989,0.05027 0.509321,-0.161395 0.725485,-0.198437 0.148431,-0.02646 0.390259,0.05821 0.528107,0 0.202141,-0.08731 0.189705,-0.497415 0.32967,-0.65881 0.146578,-0.171979 0.4781,-0.253999 0.659604,-0.396874 -0.06191,-0.158749 0.197907,0 0.197907,0 0.0926,0.600602 -0.0082,0.500061 0.593723,0.595311 0.09895,-0.187854 0.261937,-0.587373 0.528107,-0.595311 0.115358,-0.0026 0.03704,0.0926 0.197907,0.06615 0.03307,0.0926 -0.03519,0.235478 0,0.330728 0.01244,0.0344 0.164835,0.129645 0.197908,0.198437 0.07223,-0.0291 0.187324,0.01852 0.263524,0 0.20611,-0.05821 0.317499,-0.537103 0.395816,-0.724956 0.738185,-0.03175 0.585785,0.03704 0.857776,-0.463019 0.294745,0.03969 0.447144,0.01852 0.725749,0 0.01429,-0.07144 0.121973,-0.105833 0.132292,-0.132292 0.04948,-0.142874 -0.04948,-0.317499 0,-0.460373 0.03889,-0.119062 0.317499,-0.230187 0.395815,-0.330728 0.0844,-0.113771 0.09657,-0.306916 0.197908,-0.396874 0.193674,-0.174624 0.496621,-0.182562 0.593723,-0.460373 0.04948,-0.145521 -0.02884,-0.309562 0,-0.462226 0.01243,-0.07832 0.189705,-0.317499 0.197907,-0.395815 0.04948,-0.502971 -0.241828,-0.548215 -0.528106,-0.725485 -0.08678,0.115358 -0.175154,0.216164 -0.263524,0.32967 0.164835,0.03122 -0.197908,0.131762 -0.197908,0.131762 0.06165,-0.356393 -0.05186,-0.346339 0.32967,-0.593723 0.152399,-0.100806 0.251353,-0.09075 0.395815,-0.197908 0.04313,-0.03492 0.08017,-0.175154 0.131762,-0.197908 0.224631,-0.109008 0.499267,-0.0082 0.726014,-0.131762 0.10504,-0.05953 0.04921,-0.265641 0.131762,-0.32967 -0.103187,-0.189705 -0.02461,-0.218809 -0.197907,-0.330198 -0.09895,-0.06377 -0.203993,-0.07832 -0.32967,-0.131762 0.07011,-0.04736 0.117475,-0.233098 0.197908,-0.264054 0.189705,-0.0762 0.380998,0.01905 0.527577,-0.06562 0.129645,-0.07832 0.04313,-0.206639 0.131762,-0.330199 0.05556,-0.08255 0.278605,-0.121708 0.330199,-0.197908 0.0598,-0.09498 0.30083,-0.806182 0.263524,-0.989803 -0.02275,-0.105039 -0.228599,-0.189176 -0.263524,-0.263524 -0.07223,-0.154516 -0.01482,-0.25982 -0.06668,-0.461961 0.08652,-0.004 0.09737,-0.12356 0.132291,-0.131762 0.140494,-0.03704 0.189706,0.113506 0.263525,0.131762 0.400313,0.09075 0.484715,-0.144462 0.659868,-0.264053 -0.03281,-0.282309 -0.07593,-0.6305 -0.06562,-0.857247 -0.313266,-0.15875 -0.44344,-0.0598 -0.461961,-0.527577 -0.02064,-0.454024 0.224895,-0.424655 0.264053,-0.593723 0.03096,-0.138112 -0.06403,-0.369358 -0.06615,-0.39608 -0.04948,-0.581553 0.160867,-0.640819 0,-1.187446 0.08864,-0.03254 0.236802,0 0.32967,0 0.197908,-0.422539 0.173566,-0.249502 0.06615,-0.726015 -0.08864,-0.02672 -0.207962,-0.01614 -0.263524,-0.06562 -0.146314,-0.135731 -0.278341,-0.377559 -0.395816,-0.528107 0.284691,-0.226482 0.486038,-0.451113 0.791102,-0.659339 -0.03493,-0.115358 0.03307,-0.216693 0,-0.330199 -0.01217,-0.03916 -0.18362,-0.195526 -0.197908,-0.263524 -0.06165,-0.286543 -0.02831,-0.470163 -0.06562,-0.72575 0.07435,0.0021 0.358774,0.04921 0.527842,0.06562 0,0 0.07832,-0.304799 0.06614,-0.395816 -0.0063,-0.03281 -0.315911,-0.843224 -0.330463,-0.857776 -0.06588,-0.06165 -0.261672,-0.08837 -0.32967,-0.131762 0.09684,-0.305063 0.321997,-0.853278 -0.06562,-0.989009 -0.113506,-0.04154 -0.21881,0.03889 -0.330199,0 -0.04736,0.123295 -0.08043,0.236537 -0.132291,0.329141 -0.329406,0.575202 -0.05715,0.03784 -0.329141,0.132291 0,-0.119592 0.02884,-0.28231 0,-0.395816 0.02037,-0.01217 0.127793,-0.05318 0.131762,-0.06562 0.02884,-0.0971 0.06588,-0.08308 0.131762,-0.132291 -0.05345,-0.144462 -0.113241,-0.29501 -0.131762,-0.395816 -0.117475,0.05556 -0.532075,0.2286 -0.659869,0.197908 -0.01455,-0.0042 -0.164834,-0.189706 -0.197907,-0.197908 -0.07646,-0.02064 -0.191558,0.02646 -0.263524,0 -0.05159,0.04948 -0.206375,0.309562 -0.264054,0.330199 -0.07197,0.02249 -0.198172,-0.03704 -0.264053,0 0.230981,0 -0.12991,-0.853807 -0.131762,-0.857776 0.338136,-0.125941 0.352424,-0.164835 0.593723,-0.32967 -0.03096,-0.115622 0,-0.278605 0,-0.39608 -0.288659,-0.05556 -0.346338,-0.09498 -0.725485,-0.06615 -0.08467,-0.173037 -0.06403,-0.152664 -0.197908,-0.264053 -0.202141,0.123825 -0.229128,0.206639 -0.528106,0.330199 -0.07646,0.669923 -0.03492,0.661456 0.528106,0.659604 -0.13626,0.273843 -0.111389,0.377295 -0.197907,0.726015 -0.1651,-0.218545 -0.404282,-0.466195 -0.659869,-0.593723 h -0.06615 c -0.113505,-0.229129 -0.03096,-0.550596 -0.06588,-0.791896 0.140229,-0.02672 0.123825,0 0.198173,-0.06615 0.09657,-0.09075 0.321467,-0.159014 0.395815,-0.264053 0.03069,-0.04524 0.05345,-0.276224 0,-0.197908 -0.02064,-0.01032 -0.09525,-0.245003 -0.132291,-0.263524 -0.31353,-0.162983 -0.78925,0.06376 -1.05542,0 -0.187589,-0.04762 -0.28469,-0.468311 -0.461961,-0.528107 z m 40.835649,0.857776 -0.13229,0.06615 c -0.0741,0.113242 -0.0318,0.177271 -0.0662,0.32967 -0.30162,-0.08043 -0.42597,-0.05345 -0.72495,-0.131762 -0.40217,0.863861 -0.25929,0.620446 -1.25412,0.659604 l -0.33073,0.132291 c -0.0503,0.01005 -0.11642,-0.05794 -0.0661,-0.06615 -0.0926,-0.04128 -0.23813,0.03889 -0.32808,0 -0.0847,-0.03731 -0.10054,-0.455875 -0.46302,-0.330199 -0.008,0.0021 -0.15875,0.251883 0,0.198437 0,0 0.0529,0.32332 0.0661,0.395816 -0.30163,0.214311 -0.254,0.137582 -0.46038,0.461431 -0.19579,-0.05768 -0.26722,-0.04524 -0.39687,-0.131762 -0.24871,-0.167216 -0.11642,-0.311678 -0.0662,-0.264053 0.0238,-0.146579 0.19315,-0.139964 0.13229,-0.395815 -0.0159,-0.06165 -0.23019,-0.144462 -0.26458,-0.197908 -0.0556,-0.08255 -0.0344,-0.158749 -0.0661,-0.263788 -0.0212,0.0042 -0.23283,-0.04948 -0.32808,-0.06615 -0.0265,0.327817 -0.0556,0.665954 0,1.055948 -0.1614,0.0164 -0.57415,-0.0069 -0.79375,0.06562 -0.0953,0.02884 -0.29898,0.317234 -0.39423,0.395815 -0.082,-0.03704 -0.24606,0 -0.33073,0 -0.0291,-0.107156 -0.0423,-0.224895 -0.0661,-0.395815 -0.18521,-0.04763 -0.45243,-0.224631 -0.7911,-0.131762 -0.0423,0.01005 -0.17727,0.189705 -0.19844,0.197907 h -0.13229 c -0.47625,0.46593 0.26194,0.570969 0.52917,0.725485 0.082,0.04763 0.17991,0.212196 0.26458,0.263525 -0.11112,0.07461 -0.18256,0.121972 -0.26458,0.198436 -0.2884,-0.204257 -0.61119,-0.445556 -1.12183,-0.264053 -0.11113,0.03704 -0.21961,0.233097 -0.33073,0.264053 -0.12435,0.03307 -0.26987,-0.02514 -0.39423,0 -0.0688,-0.261936 -0.21431,-0.781576 -0.52916,-0.79163 -0.10319,-0.0042 -0.19315,0.102922 -0.33073,0.131762 -0.0159,0.07011 -0.12171,0.103451 -0.13229,0.132291 -0.0609,0.175154 -0.0529,0.463548 -0.0635,0.593194 -0.48419,0.124089 -0.81227,0.264053 -1.38641,0.330199 -0.0979,0.259555 -0.1614,0.434973 -0.26459,0.659868 h -0.13229 v -0.132291 c -0.11112,-0.317499 -0.43127,-0.179387 -0.65881,-0.131762 -0.0847,0.502971 -0.21431,0.606158 -0.39423,0.989538 -0.56356,-0.187589 -0.4392,-0.17727 -0.85989,0 0,0.119592 0.0291,0.276489 0,0.395816 l 0.19844,0.06588 c -0.003,0 0,0.187853 0,0.198437 -0.33338,-0.05001 -0.51858,-0.01058 -0.7911,0 -0.0238,0.14843 -0.18257,0.12938 -0.13229,0.395286 0.003,0.01455 0.20902,0.257968 0.19843,0.264053 -0.18785,0.07858 -0.28045,0.527313 -0.33073,0.725485 -0.54504,0.137847 -0.80168,0.121443 -1.18797,0.395815 0.0238,0.148431 -0.0503,0.319616 0,0.461961 0.045,0.12356 0.37571,0.220662 0.46302,0.32967 0.10319,0.130175 0.127,0.441059 0.26458,0.527577 0.15081,0.09525 0.29369,-0.02064 0.39423,0 0.0159,0.0024 0.0714,0.122237 0.13229,0.132292 -0.003,0.0042 -0.11642,0.392111 -0.0662,0.395815 -0.43921,-0.04895 -0.56885,-0.04339 -0.98954,0.06562 0.0291,-0.309032 0.10584,-0.75406 -0.19843,-0.857247 -0.0741,-0.02672 -0.1958,0.03122 -0.26194,0 -0.0185,0.07012 -0.12436,0.102923 -0.13229,0.131762 -0.10584,0.305328 0.14023,0.428624 0.0662,0.725485 -0.045,0.159014 -0.94192,0.899052 -1.121832,1.122095 0.07673,0.07408 0.03175,0.12356 0.06615,0.264053 0.15875,0.04101 0.42597,0.164306 0.59266,0.197378 -0.759349,0.187589 -1.132411,0.457728 -0.791099,1.187446 -0.230187,0.162983 -0.796393,0.775227 -0.724956,1.187446 0.01323,0.09075 0.24077,0.198173 0.261936,0.264054 0.02646,0.07249 -0.03175,0.193674 0,0.263788 -0.142874,0.08229 -0.888997,0.635263 -0.923392,0.726014 -0.04498,0.117475 0.0291,0.270139 0,0.395816 0.0291,0.0064 0.214312,0.03678 0.264582,0.06562 0.05027,0.02884 0.02646,0.173037 0.06615,0.197908 -0.105833,0.17727 -0.412749,0.412219 -0.463019,0.593723 -0.07408,0.274372 0.124353,0.771258 -0.132292,0.857776 -0.148166,0.04763 0.198437,0.395816 0.198437,0.395816 v 0.06614 c 0.04762,0.02249 0.171979,0.228335 0.198437,0.263524 0.06879,0.09499 0.11377,0.124089 0.198437,0.198173 -0.140229,0.203728 -0.478894,0.547685 -0.330728,0.989538 0.01588,0.04763 0.164041,0.126999 0.198437,0.198437 0.185207,-0.03175 0.328082,-0.0635 0.463019,-0.06615 v 0.65881 c 0.01323,-0.142874 0.0026,0.690561 0.06614,0.791102 0.03969,0.06879 0.317499,0.07673 0.394228,0.132291 0.04498,0.0344 0.07144,0.224895 0.132292,0.264583 0.150812,0.0926 0.452431,0.150811 0.592661,0.198436 0,0.171979 -0.0582,0.497415 0,0.658811 0.0714,0.193145 0.38629,0.17727 0.59531,0.264582 0.0661,-0.0979 0.18786,-0.166687 0.26459,-0.264582 0.0582,-0.07938 0.0847,-0.185208 0.13229,-0.264583 0.0529,0.15875 0.19314,0.624415 0.32808,0.727602 0.23019,0.17727 0.4736,0.105833 0.7911,0.06614 -0.0291,0.04498 0.0106,0.148167 0,0.195792 -0.0185,0.07144 -0.27252,0.275165 -0.32808,0.330728 0.0582,0.08467 0.0953,0.246061 0.13229,0.330728 0.21431,0 0.40216,-0.0291 0.65881,0 0.10319,0.01058 0.26458,0.187853 0.52652,0.132291 0.0582,-0.01588 0.20637,-0.246062 0.26458,-0.264583 0.0741,-0.02646 0.19315,0.0291 0.26458,0 0.37836,0.534457 0.1323,0.563561 0.9234,0.724956 0.2196,-0.314853 0.42068,-0.986892 1.05568,-0.857247 0.037,0.0053 0.19315,0.248708 0.26458,0.264583 0.24342,0.05027 0.381,-0.142875 0.65881,-0.06615 0.0635,0.01587 0.13759,0.227541 0.19844,0.264582 0.10319,0.0635 0.21167,-0.0026 0.32808,0.0635 0.0661,0.03704 0.0767,0.224895 0.13229,0.264583 0.11377,0.08202 0.93133,0.402165 1.18798,0.330728 0.11377,-0.0344 0.18521,-0.296333 0.33073,-0.330728 0.35189,-0.08731 0.51593,0.150812 0.85724,0.06614 0.23284,-0.05821 0.381,-0.515935 0.46302,-0.724956 0.90223,0.121708 0.60325,0.02117 1.11919,-0.330728 0.10583,-0.07408 0.23283,-0.05821 0.33072,-0.132291 0.0582,-0.04498 0.12965,-0.243416 0.19844,-0.261937 0.26723,-0.08996 0.58208,0.06615 0.85725,0 0.11642,-0.03175 0.23548,-0.206374 0.33073,-0.264582 -0.0212,-0.111125 -0.0714,-0.296332 -0.0661,-0.330728 -0.15875,-0.07144 -0.32544,-0.195791 -0.46302,-0.264582 0.22225,0.01852 0.52652,0.08731 0.65881,0.06614 0.23548,-0.03704 0.8202,-0.486832 0.85989,-0.724956 0.0318,-0.214311 -0.30427,-0.476248 0,-0.592664 0.1614,-0.0635 0.41804,0.02646 0.59266,0 0.15611,-0.02646 0.45244,-0.211666 0.59267,-0.264583 -0.0291,-0.08731 0,-0.238124 0,-0.330728 -0.44714,-0.211666 -0.53446,-0.227541 -0.98954,0.06615 l -0.0662,0.132291 c -0.23283,0.03969 -0.18521,-0.121708 -0.32808,-0.132291 0.0159,-0.100542 0.0688,-0.306916 0.0661,-0.328082 0.52123,0.04762 0.77523,0.04762 1.05568,-0.264583 0.49742,-0.560915 0.21696,-0.72231 -0.39687,-0.923393 0.0344,-0.07408 -0.0318,-0.121708 0,-0.198436 0.0265,-0.07408 0.23812,-0.191294 0.26458,-0.263789 0.0238,-0.07408 -0.0317,-0.193939 0,-0.264053 h 0.13229 c 0.0106,0.0064 0,0.239447 0,0.264053 0.0847,0.04366 0.15346,0.04339 0.19579,0.131762 0.35455,-0.11721 0.94986,-0.352159 0.98954,-0.725485 0.0582,-0.564884 -0.62706,-0.550861 -0.98954,-0.528107 0.15611,-0.37703 0.20373,-0.581023 0.1323,-1.055155 0.15875,-0.05768 0.23018,-0.03096 0.39687,-0.06614 0.0132,-0.07197 0.12171,-0.104775 0.13229,-0.131762 0.11906,-0.350572 -0.0159,-0.334168 0.19844,-0.593723 0.082,-0.103187 0.22489,-0.175418 0.32808,-0.264053 -0.0159,0.05768 -0.127,0.229128 -0.13229,0.264053 -0.0317,0.218545 0.12435,0.273843 0.0662,0.461432 -0.0212,0.06588 -0.27517,0.214576 -0.32808,0.264053 0.0291,0.08467 0,0.234949 0,0.32967 0.32279,0.06191 0.29104,0.297126 0.65881,-0.06562 0.11641,-0.119591 0.0661,-0.218545 0.13229,-0.395815 0.0609,0.03889 0.19314,-0.02884 0.26458,0 0.0503,0.02064 0.11112,0.275959 0.13229,0.32967 0.25929,-0.125677 0.6006,-0.156633 0.72496,-0.395816 0.0291,-0.05979 0.20108,-0.937945 0.19843,-0.989538 -0.0106,-0.109273 -0.17991,-0.210608 -0.13229,-0.462226 0,0 0.29898,-0.521227 0.33073,-0.593723 -0.23019,-0.06165 -0.2831,-0.146049 -0.52916,-0.197907 0.0344,-0.02249 -0.037,-0.177006 0,-0.197908 0.0952,-0.05768 0.23018,-0.04286 0.33072,-0.06562 -0.005,-0.07408 -0.045,-0.397932 0,-0.528107 0.0159,-0.05556 0.21432,-0.158485 0.26194,-0.197908 -0.15346,-0.327553 -0.19314,-0.516994 -0.32808,-0.857247 0.14023,-0.068 0.26458,-0.04577 0.39423,-0.132291 0.0529,-0.03678 0.13758,-0.24077 0.19843,-0.263524 0.20902,-0.0844 0.40746,-0.0042 0.59267,-0.06562 0.12171,-0.04339 0.20637,-0.200553 0.39687,-0.198436 0.40746,0.004 0.49212,0.420421 0.59531,0.725485 0.0582,-0.03493 0.21961,-0.133614 0.26194,-0.131233 -0.0265,-0.354805 0.0185,-0.497415 0.0662,-0.79216 0.0132,-0.07832 -0.0609,-0.169068 -0.0662,-0.131762 v -0.197908 c 0.22754,-0.179387 0.43127,-0.350307 0.66145,-0.527842 -0.0265,-0.128058 0.0318,-0.272255 0,-0.395815 l -0.13229,-0.131762 c 0,0 -0.0609,-0.119591 -0.0661,-0.132291 -0.21431,0.03122 -0.45772,0.130174 -0.66145,0.06614 -0.0318,-0.01005 -0.14288,-0.173037 -0.19579,-0.197907 0.15345,-0.251089 0.19579,-0.340253 0.39422,-0.528107 -0.0873,-0.346074 -0.31749,-1.323441 -0.26193,-1.648878 0.0397,-0.257968 0.44714,-0.453759 0.52652,-0.659868 0.1905,-0.521492 -0.16404,-1.717405 -0.46302,-1.84705 -0.31221,-0.13626 -0.67733,0.07858 -0.98689,-0.06615 -0.10055,-0.04736 -0.0688,-0.238918 -0.1323,-0.32967 -0.13758,-0.187853 -0.41274,-0.126205 -0.59531,-0.264053 -0.20902,-0.159014 -0.43391,-0.968636 -0.65881,-1.055155 -0.0714,-0.02699 -0.14023,0.04101 -0.19843,0 -0.11907,0.657488 -0.0979,0.630765 -0.72496,0.791631 -0.0476,-0.08652 -0.0635,-0.233362 -0.13229,-0.330199 -0.0529,-0.07223 -0.30956,-0.130174 -0.33073,-0.197908 -0.0767,-0.247384 0.14288,-0.37703 0.0661,-0.659339 -0.0291,-0.09895 -0.25664,-0.200289 -0.33073,-0.264053 0,0 0.0609,-0.123825 0.0661,-0.132292 0.1614,0.01244 0.37571,-0.05159 0.52917,0 0.13229,0.04339 0.22754,0.352689 0.39687,0.396345 0.83608,0.212195 0.66146,-0.404282 0.32808,-0.660133 -0.22225,-0.173037 -0.41539,-0.243151 -0.65881,-0.395816 z M 35.186582,43.067467 c -0.05027,0.0053 -0.0979,0.03704 -0.145521,0.0079 -0.03175,0.05292 -0.203728,0.100541 -0.261936,0.132291 0.0026,0.0344 0,0.857247 0,0.857247 -0.0344,0.04763 -0.166687,0.07937 -0.198437,0.132291 -0.0291,0.04233 -0.03175,0.298978 -0.06615,0.328082 -0.100541,0.08202 -0.164041,0.0344 -0.330728,0.06615 0.08202,0.04233 -0.156104,0.07937 -0.198437,0.06615 -0.0291,-0.01058 -0.0635,-0.111125 -0.132291,-0.132292 0.04763,-0.346603 0.132291,-0.732893 -0.195791,-0.857247 -0.132291,-0.05292 -0.153458,0.0926 -0.330728,0.06615 -0.05556,-0.01058 -0.20902,-0.187854 -0.264582,-0.198437 -0.521228,-0.11377 -0.746123,0.235478 -0.989539,0.396874 -0.06614,-0.04498 -0.126999,0.02646 -0.198437,0 -0.100541,-0.03969 -0.169332,-0.288395 -0.261936,-0.330728 -0.232833,-0.111125 -0.81756,-0.0635 -1.055684,0.06614 -0.314853,0.169333 -0.148166,0.875768 -0.330728,1.187975 -0.0291,0.04763 -0.455082,0.391582 -0.526519,0.460374 -0.07699,-0.07144 -0.324378,-0.373061 -0.396345,-0.394228 -0.688972,-0.198437 -1.111246,0.981601 -1.451764,-0.264582 -0.03704,-0.0053 -0.25347,-0.100542 -0.395815,-0.06615 l -0.06562,0.132291 c -0.218546,0.140229 -0.400314,0.425978 -0.06668,0.592665 0.05583,0.02646 -0.0926,0.07408 -0.06562,0.132291 -0.144197,0.03704 -0.317499,0.15875 -0.461961,0.132291 -0.168803,-0.03439 -0.14843,-0.325436 -0.527577,-0.264582 -0.09287,0.01588 -0.552448,0.452436 -0.593723,0.463019 -0.146579,0.03175 -0.453759,-0.04233 -0.659869,-0.06614 l -0.06562,0.198436 c -0.521737,0.134967 0.04288,-0.267198 0.131782,-0.330698 -0.01879,-0.100541 -0.07011,-0.306915 -0.06615,-0.330728 -0.265905,-0.03969 -0.343957,-0.02646 -0.593193,-0.0635 -0.01879,0.08467 -0.07885,0.08731 -0.132292,0.129646 0.06773,0.269874 0.06615,0.383644 0.132292,0.59531 -0.167217,0.07673 -0.389995,0.03969 -0.462226,0.198437 -0.06403,0.129646 -0.05583,0.497415 -0.06615,0.592665 -0.134143,-0.04233 -0.131497,0.105833 -0.263524,0.06614 -0.08678,-0.02646 -0.13626,-0.293686 -0.264053,-0.330728 -0.344486,-0.103187 -0.655635,-0.01852 -0.989538,-0.06615 -0.05371,0.664102 -0.360626,1.092725 -0.65934,1.518703 -0.03096,-0.02381 -0.167216,0 -0.197907,0 -0.138377,-0.293687 -0.119592,-0.235478 -0.197908,-0.661456 -0.111389,-0.0291 -0.103452,0.05027 -0.132291,-0.0635 -0.06826,0.0344 -0.19341,-0.02646 -0.263524,0 -0.03122,0.0079 -0.06456,0.105833 -0.132292,0.129646 0,0.0026 0.0063,0.309561 0.06615,0.198436 -0.01667,0.0635 -0.06615,0.264583 -0.06615,0.264583 -0.152664,0.02381 -0.319351,-0.05027 -0.461431,0 -0.09499,0.03175 -0.17145,0.288395 -0.264054,0.330728 -0.482598,0.20902 -0.903284,-0.06879 -1.253856,-0.198437 -0.140229,0.190499 -0.238918,0.227541 -0.32967,0.526519 0.0021,-0.05027 0.02487,-0.441853 0,-0.526519 -0.01243,-0.03969 -0.121443,-0.05027 -0.131762,-0.132291 -0.09472,0.03439 -0.237595,-0.0344 -0.330199,0 -0.05159,0.01588 -0.172772,0.14552 -0.263524,0.198437 -0.06376,-0.04233 -0.132026,-0.230187 -0.197907,-0.264583 -0.09498,-0.05027 -0.779725,-0.17727 -0.923922,-0.132291 -0.01244,0.0026 -0.05345,0.119062 -0.06562,0.132291 -0.385761,0.338666 -0.186001,0.259291 -0.132291,0.65881 l 0.06615,0.264583 c 0.0019,-0.0026 0.309297,-0.0079 0.197907,-0.06615 0.0762,0 0.185737,0.0053 0.264054,0 0,0.02117 -0.01032,0.259291 0,0.264583 -0.156633,-0.03175 -0.109273,0.09525 -0.264054,0.06614 -0.05371,-0.01058 -0.210607,-0.253999 -0.264053,-0.264582 -0.203993,-0.04233 -0.910957,0.179916 -1.055419,0.264582 -0.06588,0.03704 -0.01879,0.150812 -0.06615,0.198437 -0.08017,0.07408 -0.226482,0.06615 -0.32967,0.132291 -0.04313,0.02381 -0.09049,0.179916 -0.131762,0.195791 -0.03916,0.01588 -0.162718,-0.01852 -0.197907,0 -0.04763,-0.121708 -0.09922,0.0026 -0.132291,-0.06614 -0.02672,-0.05292 0,-0.206375 0,-0.261937 -0.115358,-0.0291 -0.03678,-0.02646 -0.06562,-0.132291 -0.115358,0 -0.288659,0.03175 -0.395815,0 -0.146314,0.203728 -0.309562,0.478894 -0.528107,0.592665 -0.319351,0.164041 -1.071823,0.201082 -1.253062,0.463019 -0.07011,0.09525 0.0021,0.164041 -0.06615,0.264582 -0.115623,-0.04233 -0.05159,0.07144 -0.06615,0.129646 -0.169069,-0.05027 0,0.198437 0,0.198437 0.173301,0.05292 0.214311,-0.06879 0.395815,-0.06615 0,0.0079 -0.0021,0.195791 0,0.198437 -0.162718,0.04763 -0.148431,0.02117 -0.32967,0.06614 0.09895,0.06879 -0.185737,0.06085 -0.197907,0.06615 l -0.06615,-0.330728 c -0.04551,-0.02646 -0.311149,0.03704 -0.32967,0 -0.05556,-0.108479 0,-0.402165 0,-0.526519 -0.707229,-0.15875 -0.480482,-0.113771 -0.791895,0.460373 -0.01217,0.02117 -0.197908,0.193146 -0.197908,0.198437 -0.05345,0.235479 0.09737,0.444499 0.06615,0.595311 -0.0164,0.06879 -0.175154,0.129645 -0.197908,0.195791 -0.08017,-0.0344 -0.241299,0 -0.330199,0 0.01058,-0.185208 0.0291,-0.261937 0.06615,-0.460374 -0.05768,-0.04498 -0.11721,-0.03969 -0.131762,-0.132291 -0.1256762,0.0053 -0.4614312,0.06615 -0.4614312,0.06615 -0.0045,0.0053 -0.188119,0.05292 -0.198437,0.06615 -0.0926,0.08731 -0.04101,0.36777 -0.131762,0.460374 -0.132027,0.129645 -0.391847,0.07937 -0.528107,0.198436 -0.04551,0.03704 0,0.169333 -0.06562,0.198437 -0.09287,0.0344 -0.239447,-0.03704 -0.330199,0 0.068,-0.03439 -0.131233,-0.132291 -0.131233,-0.132291 0.01191,-0.02117 0.131233,-0.198437 0.131233,-0.198437 0.234949,-0.07144 0.466194,-0.0344 0.594252,-0.195791 0.01217,-0.01852 0.131762,-0.198437 0.131762,-0.198437 0.02249,-0.100541 -0.06615,-0.396873 -0.06615,-0.396873 -0.624679,0 -0.985569,0.07408 -1.319208,0.529165 -0.05583,0.07144 -0.05583,0.227541 -0.131762,0.261936 -0.202141,0.08996 -0.433121,-0.0291 -0.593987,0.06615 -0.0844,0.04763 -0.333903,0.833435 -0.264054,1.055684 0.01455,0.04498 0.1651,0.126999 0.197908,0.198437 0.119591,0 0.276489,-0.0291 0.395815,0 -0.0085,0.01323 -0.08043,0.126999 -0.06615,0.132291 -0.504823,0.08731 -0.521492,0.198437 -0.725485,0.592665 -0.657752,0 -0.760648,0.05292 -0.923392,0.529164 v 0.132292 c -0.134144,0.105833 -0.387667,0.03175 -0.528107,0.129645 -0.323558,0.224895 -0.06564,1.148288 -0.06564,1.71714 0.286437,0.07673 0.694661,0.211666 0.791684,0.460374 0.0267,0.07144 -0.04344,0.132291 0,0.198436 -0.154755,0.108479 -1.026898,0.88106 -1.055737,0.989539 -0.06186,0.20902 0.0477,0.349249 0.06615,0.529165 0.08657,-0.0053 0.218519,0.0979 0.395842,0.06615 0.14044,-0.0291 0.173089,-0.206374 0.263524,-0.264582 0.0023,0 0.293289,0.103187 0.198437,0.132291 0.04096,0.0291 0.175153,0.08467 0.197907,0.132291 0.07435,0.148166 0.01429,0.259291 0.06562,0.460374 -0.09075,0.01588 -0.09684,0.126999 -0.131735,0.198436 -0.07228,-0.03439 -0.150654,-0.182561 -0.197935,-0.198436 -0.140175,-0.04762 -0.317657,0.02117 -0.46196,0 -0.07011,0.214311 -0.296544,0.608539 -0.263551,0.857247 0.0041,0.04233 0.185022,0.169332 0.197405,0.198437 0.09922,0.222249 -0.01844,0.22754 0,0.460373 -0.0844,-0.04233 -0.0531,0.103187 -0.197405,0.06615 -0.01651,-0.0026 -0.07459,-0.116417 -0.132291,-0.129646 0.261672,-0.100541 -0.368908,-0.100541 -0.197934,-0.06615 l -0.06562,0.261936 c 0.263868,0.161396 0.743953,0.277812 0.923445,0.529168 0.09869,0.14023 0.06789,0.35454 0.197908,0.46037 0.20611,0.17198 0.461432,0.0714 0.527577,0.39687 0.07408,0.37836 -0.187589,0.48684 -0.131762,0.79111 0.02884,0.16668 0.329935,0.26193 0.395816,0.39687 0.04921,0.10319 0.125412,0.4736 0.131762,0.52652 0.02672,0.29633 -0.0762,1.03716 0.06615,1.38641 h 0.06615 c 0.197643,0.0979 0.34184,0.46302 0.527577,0.52652 h 0.131762 c 0.03307,0.0291 0.0209,0.17462 0.06615,0.19844 0.146579,0.0741 0.309032,-0.0185 0.461697,0.0662 0.121707,0.0688 0.655635,0.8202 0.396344,1.05568 0.327553,0.25665 0.991126,0.42598 0.922864,1.05568 -0.0021,0 -0.173037,0.27252 -0.197379,0.33073 0.08202,-0.045 0.05106,0.10054 0.197379,0.0661 0.07223,-0.0185 0.09102,-0.19314 0.132291,-0.26458 0.05159,0 0.21828,0.0265 0.263524,0 0.138377,0.13229 0.6744212,0.53446 0.197908,0.65881 -0.04736,-0.0582 -0.131762,-0.24077 -0.197908,-0.26194 -0.07408,-0.0291 -0.195262,0.0291 -0.263524,0 -0.03307,0.0635 -0.146579,0.15082 -0.197908,0.1958 0,0 0,0.24077 0.06562,0.13229 0.04524,0.15081 0.02937,0.10848 0.06668,0.26458 0.132027,-0.0635 0.06562,0.46037 0.06562,0.46037 0.397932,-0.12964 0.540542,-0.16404 0.9895382,-0.12964 0.01058,-0.0238 0.05318,-0.13229 0.06562,-0.13229 0.06006,-0.0185 0.324114,0.0476 0.264054,0.0661 0.09922,0.16668 0.214312,0.3122 0.329669,0.46037 -0.302946,0.09 -0.655106,0.10054 -0.725485,0.39687 -0.01005,0.0318 0.01667,0.16669 0,0.19844 -0.04127,0.0661 -0.2389182,0.12171 -0.2640532,0.19579 -0.03493,0.0926 0.03307,0.23548 0,0.33073 0.1195912,-0.0582 0.2211912,-0.005 0.3301992,-0.0661 0.121708,-0.0714 0.216428,-0.30692 0.32967,-0.39687 0.222778,-0.17992 0.441059,-0.27782 0.659868,-0.46038 0.1524,0.22225 0.333903,0.53446 0.527842,0.72496 0.08043,0.082 0.352689,0.16139 0.395816,0.26458 0.0762,0.1905 -0.08043,0.24342 -0.06615,0.39423 l 0.132291,0.19843 c 0.09684,0.48419 0.02699,0.36248 0.197908,0.72761 0.07223,-0.0291 0.187324,0.0185 0.263524,0 0.181239,-0.0503 0.381528,-0.34396 0.528106,-0.46302 0.496886,0.44979 0.915191,0.80962 1.715023,0.39687 -0.04313,0.39158 -0.08625,0.77787 0.264054,0.92339 0.105304,0.0423 0.201876,-0.0185 0.263524,0.0662 0.04551,0.0608 0.167216,0.51858 0.197908,0.59267 0.748503,-0.11113 0.946411,-0.0212 1.451763,0.26458 0.101071,-0.0635 0.370945,-0.35983 0.527578,-0.33073 0,0 -0.05186,0.32015 -0.06615,0.39688 0.04736,0.0318 0.368828,0.21695 0.395815,0.26193 0.05371,0.10319 -0.02699,0.28046 0,0.39688 0.02487,0.11377 0.315647,0.32279 0.330199,0.39687 0.02672,0.15081 -0.0971,0.24342 -0.132291,0.39423 0.181504,-0.0397 0.457992,-0.16404 0.659869,-0.12965 0.185737,0.0291 0.325965,0.30956 0.461961,0.39423 0.105304,0.0661 0.212195,-0.003 0.329669,0.0661 0.179387,0.10319 0.511438,0.79639 0.593988,1.05568 0.249237,-0.082 0.706964,-0.19843 0.989538,-0.19843 0.08228,-0.003 0.224631,0.13229 0.395816,0.0661 v -0.0661 c 0.107156,-0.0556 0.117474,-0.20902 0.197907,-0.26459 0.107156,-0.0741 0.203729,0 0.32967,-0.0635 0.197908,0.65352 -0.06191,0.4154 0.593723,0.59267 0.01429,-0.0238 0.105304,-0.1905 0.132291,-0.19844 0.07435,-0.0291 0.125677,0.037 0.197908,0 0.05556,0.045 0.133879,0.23019 0.197908,0.26458 0.183355,0.0979 0.715166,0.10584 0.923392,0.1323 0.02275,0.14816 -0.05159,0.31749 0,0.46037 0.101071,0.28046 1.325558,0.508 1.715288,0.59531 0.02884,0.11377 -0.03096,0.21167 0,0.32808 0.0019,0.0106 0.575203,0.58473 0.593723,0.59531 0.579436,0.26194 0.597692,-0.18521 0.857777,-0.26458 0.527577,-0.16404 0.721251,0.15081 0.923128,0.26458 0.10742,0.0582 0.208226,0.008 0.330199,0.0661 0.03678,-0.0979 0.109272,-0.09 0.197907,-0.13229 -0.05159,-0.37041 -0.03307,-0.5715 -0.06562,-0.7911 0.104774,0.0265 0.15822,-0.037 0.263524,-0.0661 0.05768,0.10054 0.220397,0.48419 0.32967,0.52652 0.373061,0.14023 0.862538,-0.12435 1.121829,-0.13229 0.441853,-0.0185 0.500061,0.14552 0.724956,0.33073 0.619123,-0.27252 0.672039,-0.0159 1.386412,-0.1323 0.06615,-0.0132 0.357186,-0.19314 0.394228,-0.19843 0.230187,-0.037 0.452436,0.09 0.59531,0.0662 0.06085,-0.0132 0.193146,-0.16669 0.261937,-0.19844 -0.0291,-0.11642 0.0291,-0.21431 0,-0.32808 -0.0053,-0.0265 -0.65881,-0.96044 0.198437,-0.7276 0.0291,0.008 0.148166,0.18785 0.198437,0.19843 0.134937,0.0238 0.203728,-0.0767 0.264582,-0.0662 -0.07144,-0.0529 0.05292,-0.2831 0.06615,-0.32808 -0.07408,-0.0397 -0.0291,-0.11641 -0.06615,-0.13229 -0.116416,-0.0582 -0.219603,-0.0397 -0.330728,-0.0661 0.0079,-0.13494 -0.07144,-0.19844 -0.06615,-0.26458 0.01852,-0.23548 0.418041,-0.35719 0.529165,-0.52652 0.08202,-0.13229 0.04498,-0.32279 0.132292,-0.46302 0.09789,-0.16933 0.875767,-0.508 1.185329,-0.46037 0.03175,0.003 0.185208,0.1905 0.198437,0.19579 0.06879,0.0238 0.201082,-0.037 0.264582,0 0.08996,0.0529 0.166687,0.29104 0.264583,0.33073 0.04762,0.0185 0.14552,-0.0344 0.198436,0 0.05556,-0.74613 0.02646,-0.57415 0.592665,-0.59267 -0.0079,0.17463 0.03969,0.42069 0,0.59267 -0.0053,0.005 -0.187853,0.1217 -0.198437,0.13229 0.119062,0.4445 -0.02646,0.31485 0.264583,0.59266 -0.07144,0.0212 -0.103187,0.12171 -0.132292,0.13229 -0.103187,0.0344 -0.224895,-0.0291 -0.330728,0 0.105833,0.0397 -0.251353,0.0635 -0.261936,0.0661 -0.01852,-0.0476 -0.0291,-0.14287 -0.06615,-0.19843 -0.328082,-0.48684 -0.246061,-0.46038 -1.055684,-0.46038 -0.04498,0.127 -0.04762,0.34396 -0.132291,0.46038 -0.07408,0.0953 -0.30427,0.11641 -0.396874,0.19843 -0.09789,0.0873 -0.06085,0.0635 -0.132291,0.19844 0.0026,0 0,0.18785 0,0.19844 0.04498,0 0.224895,-0.0291 0.264583,0 -0.0026,0.0212 0.04762,0.22754 0.06614,0.32808 -0.325436,0 0.02381,0.51858 0.06615,0.59531 -0.216958,0.16933 -0.396874,0.34396 -0.592665,0.52652 0.0344,0.11641 0.08202,0.14287 0.06615,0.26458 0.685268,0.40217 0.820205,0.33073 1.185329,-0.33073 0.04498,0.0529 0.219604,0.0714 0.264583,0.13229 0.05821,0.0794 0.01323,0.17992 0.06615,0.26459 0.264583,0.43127 0.587373,0.22225 0.923393,0.0662 -0.05556,-0.50007 -0.01058,-0.58738 0.06614,-0.9234 0.0635,0.037 0.193146,-0.0318 0.264583,0 0.0979,0.0397 0.187853,0.35719 0.328082,0.39423 0.497415,0.12435 0.568852,-0.25135 0.793747,-0.39423 0.113771,-0.0767 0.209021,-0.008 0.328083,-0.0661 0.116416,-0.0609 0.227541,-0.254 0.330728,-0.33073 0.05292,0.0238 0.142874,-0.0132 0.198437,0 0.103187,0.0238 0.185207,0.22754 0.261936,0.26459 0.224895,0.10318 0.349249,0.0132 0.595311,0 0.01058,-0.045 0.126999,-0.18521 0.132291,-0.19844 0.08996,-0.35719 -0.203729,-0.53181 0.06615,-0.72496 0.06615,0.0318 0.187853,-0.0265 0.261936,0 0.103187,0.0344 0.121708,0.27252 0.198437,0.32809 0.35454,0.25929 0.642935,0 0.923393,-0.12965 -0.0079,-0.19579 0,-0.40216 0,-0.59531 -0.150812,-0.0609 -0.542394,-0.17992 -0.592665,-0.32808 -0.02646,-0.0767 0.03175,-0.19579 0,-0.26458 0.171979,0.0476 0.14552,-0.10848 0.330728,0 0.216958,0.12699 0.08731,0.42862 0.526519,0.39422 0.259294,-0.0185 0.502704,-0.30691 0.592664,-0.52652 0,0 0.16404,-0.0873 0.0661,-0.13229 -0.10848,-0.0503 -0.23548,-0.25929 -0.19579,-0.46037 0.003,-0.0318 0.17727,-0.11113 0.19579,-0.13229 0.1561,-0.20638 0.12171,-0.36777 0.19844,-0.66146 -0.0582,-0.045 -0.11642,-0.0397 -0.13229,-0.13229 -0.0212,0 -0.17992,0.0132 -0.19844,0 v -0.19579 c 0.90487,0.41804 1.00277,0.0476 1.84943,-0.19844 0.0185,-0.11906 0.005,-0.3757 0.0661,-0.52916 0.0265,-0.0767 0.23548,-0.16669 0.26194,-0.26194 0.037,-0.13229 -0.0265,-0.26193 0,-0.39687 -0.0582,-0.0476 -0.11113,-0.0423 -0.13229,-0.13229 -0.0873,0 -0.25136,0.0344 -0.32809,0 -0.045,-0.0212 -0.10583,-0.24871 -0.13229,-0.26459 0.0609,0 0.15346,-0.10054 0.19844,-0.13229 0.36512,0.24606 0.22225,0.21431 0.72496,0.19844 -0.0159,-0.15875 0.0794,-0.10583 0.0661,-0.26194 -0.008,-0.0688 -0.19315,-0.23812 -0.19844,-0.26458 -0.045,-0.23283 0.10583,-0.29369 0.13229,-0.39687 0.0291,-0.127 -0.0344,-0.27252 0,-0.39423 0.037,-0.14288 0.24606,-0.27517 0.33073,-0.39687 -0.0291,-0.0476 0.008,-0.15082 0,-0.19844 -0.037,-0.15081 -0.33867,-0.254 -0.46302,-0.32808 0.16139,-0.55298 0.36248,-0.73025 0.46302,-1.38642 -0.0556,-0.0132 -0.17727,-0.12699 -0.19844,-0.13229 -0.39687,-0.0873 -0.59002,0.31221 -0.7911,0.46302 -0.037,0.0238 -0.11112,0.1614 -0.13229,0.19579 -0.0291,-0.13229 -0.0741,-0.44714 -0.13229,-0.65881 -0.0159,-0.0529 -0.1905,-0.20902 -0.19844,-0.26458 -0.0635,-0.39158 0.32279,-0.4445 0.39687,-0.72495 v -0.0662 c -0.0132,0.0503 -0.082,-0.19315 -0.0661,-0.26459 0.0212,-0.10583 0.53975,-1.01335 0.26459,-1.18533 -0.39423,-0.2487 -0.63235,0.14023 -0.8599,0.19579 -0.0397,0.008 -0.16404,-0.0159 -0.19579,0 -0.0185,-0.0714 -0.12435,-0.10318 -0.13229,-0.12964 -0.0741,-0.20902 0,-0.5715 0,-0.79375 0.0344,0.12171 0.0662,-0.0661 0.0662,-0.0661 -0.22754,-0.49477 -0.17991,-0.37041 -0.7276,-0.32808 -0.0582,0.22754 -0.19579,1.0742 -0.39423,1.18797 -0.158746,0.0847 -0.375703,-0.003 -0.529161,0.0661 -0.0291,0.0106 -0.185208,0.19315 -0.198437,0.1958 -0.142875,0.0318 -0.193145,-0.082 -0.261937,-0.0661 0.07673,0 -0.06614,-0.1958 -0.06614,-0.1958 -0.01852,-0.24077 0.243415,-0.65087 0.264582,-0.79374 0.03175,-0.26194 -0.100541,-0.48419 -0.132291,-0.65881 l 0.06614,-0.19844 c 0.121708,0.0265 0.269875,-0.0397 0.394228,0 0.309562,0.10319 0.203729,0.69321 0.724956,0.46302 0.52123,-0.23283 0.20902,-0.79639 0.0662,-1.12183 -0.3466,0.0265 -0.494769,0.0212 -0.791102,0.0661 0.129646,-0.44715 0.08731,-0.40217 0,-0.79375 -0.06085,-0.008 -0.216957,-0.082 -0.328082,-0.12964 0,0 -0.439207,0.42597 -0.330728,0.46037 0.283103,0.0873 0.129645,0.84137 0,1.05568 -0.0979,0.15611 -0.41804,0.25665 -0.59531,0.33073 0.05027,-0.84402 -0.02381,-0.6641 0.529164,-1.18797 -0.07937,-0.24342 -0.06085,-0.30427 -0.132291,-0.52917 0.0344,-0.0265 0.179916,-0.0926 0.198437,-0.12964 0.05821,-0.12965 -0.05556,-0.19579 0.06615,-0.26459 0,0 -0.121708,-0.34395 -0.132292,-0.39687 0.06615,0.0423 0.195791,0.0238 0.264583,0.0662 0.03969,0.0265 0.08996,0.18521 0.132291,0.19844 0.07144,0.0238 0.317499,-0.0503 0.261937,-0.0661 0.01323,-0.0397 0.185207,-0.0953 0.198437,-0.13229 0.06879,-0.19844 -0.06879,-0.52652 0,-0.72496 0.05027,-0.14552 0.407456,-0.0847 0.330726,-0.52652 -0.02646,-0.15081 -0.293685,-0.30162 -0.396872,-0.39687 0.198437,-0.428628 0.198437,-0.256649 0.06615,-0.658814 -0.0979,-0.298979 -0.182562,-0.616477 -0.460374,-0.727602 -0.72231,-0.283103 -0.81756,0.124354 -0.727602,0.727602 -0.04762,0.0344 -0.314853,0.148166 -0.330728,0.195791 v 0.132291 h -0.129645 c -0.05027,-0.17727 -0.01323,-0.301624 -0.132291,-0.394228 l -0.06615,-0.06615 c 0.03175,-0.03175 -0.01852,-0.156103 0,-0.198436 h 0.06615 c 0.253999,-0.127 0.357186,-0.378353 0.526519,-0.592665 -0.648227,-0.119062 -0.648227,-0.410103 -0.857247,-1.12183 0.156103,-0.07673 0.492123,-0.325436 0.661456,-0.330728 0.349249,-0.01588 0.267228,0.182562 0.394228,0.264583 0.119062,0.07408 0.201082,-0.01323 0.330728,0.06614 0.08202,-0.05821 0.171978,-0.156103 0.264582,-0.198436 -0.05027,-0.193146 0.01852,-0.325437 -0.06615,-0.46302 -0.01058,-0.01323 -0.264582,-0.132291 -0.264582,-0.132291 -0.0635,-0.246062 0.182562,-0.24077 0.132291,-0.526519 -0.02646,-0.148166 -0.259291,-0.227541 -0.330728,-0.330728 -0.05821,-0.08467 -0.01588,-0.182562 -0.06615,-0.264583 -0.113771,-0.185207 -0.402166,-0.285749 -0.592665,-0.394227 0.0291,-0.127 -0.03704,-0.27252 0,-0.396874 0.02117,-0.07144 0.251353,-0.232833 0.261937,-0.328082 0.03704,-0.36777 -0.346603,-0.563561 -0.592665,-0.661456 -0.134937,-0.05292 0.182562,-0.145521 0.264582,-0.132292 l 0.132292,0.132292 c 0.584727,0.156103 0.476248,-0.410103 0.460373,-0.724956 -0.08467,-0.01588 -0.09525,-0.119062 -0.132291,-0.132291 -0.320145,-0.111125 -0.738185,0.253999 -0.923393,0.330728 l -0.132291,-0.198437 c 0.01323,-0.03969 0.185208,-0.09525 0.198437,-0.132291 0.03704,-0.111125 0,-0.277812 0,-0.394228 0.100541,0.04233 0.03704,-0.108479 0.198436,-0.06615 0.02646,0.0053 0.0979,0.174624 0.132292,0.195791 0.336019,0.20902 0.473602,0.04498 0.724956,-0.129645 -0.269874,-0.67204 -0.275166,-0.933976 -1.055684,-0.529165 0.01058,-0.0079 0,-0.185208 0,-0.198437 0.261936,-0.11377 0.391582,-0.09525 0.529165,-0.328082 0.01587,-0.03175 0.09525,-0.05027 0.132291,-0.06615 -0.03175,-0.07144 0.02381,-0.193145 0,-0.264582 -0.04498,-0.129646 -0.298978,-0.253999 -0.330728,-0.396874 -0.08467,-0.380999 0.05821,-0.664102 0,-1.055684 0.0635,0.03704 0.129645,-0.111125 0.261936,0 0.142875,0.119062 0.02117,0.664102 0,0.926039 0.127,-0.02117 0.24077,0.08202 0.46302,0 0.02117,-0.01058 0.04762,-0.129646 0.06615,-0.132292 0.0053,-0.06085 0.187854,-0.171978 0.132291,-0.396873 -0.0053,-0.01588 -0.140228,-0.150812 -0.132291,-0.198437 0.01323,-0.09525 0.293687,-0.161395 0.264583,-0.526519 -0.01852,-0.216958 -0.24077,-0.153458 -0.132292,-0.463019 0.0053,-0.01852 0.174625,-0.164042 0.198437,-0.198437 0,0 -0.01587,-0.169333 -0.06614,-0.06615 -0.04233,-0.02117 -0.07144,-0.24077 -0.132292,-0.261936 -0.134937,-0.05027 -0.383644,0 -0.529164,0 V 48.88048 h 0.06615 c 0.01058,-0.04762 0.03175,-0.301624 0.06615,-0.330728 0.283103,-0.251353 0.590019,0.0291 0.923392,-0.06614 0.03969,-0.01058 0.134938,-0.169333 0.198437,-0.198437 0,-0.05821 -0.02646,-0.20902 0,-0.261937 -0.219603,-0.269874 -0.407457,-0.41804 -0.724956,-0.59531 0,-0.08202 0.03969,-0.328083 0,-0.394228 -0.07937,-0.129646 -0.20902,-0.04233 -0.330728,-0.132291 -0.150812,-0.111125 -0.214311,-0.468311 -0.261936,-0.661456 -0.07408,-0.01588 -0.105833,-0.121708 -0.132291,-0.129646 -0.822852,-0.285749 -0.515936,0.669394 -0.396874,0.989538 -0.116416,0.03704 -0.121708,0.0026 -0.198437,0.06615 -0.253999,0.201083 -0.222249,0.174625 -0.592665,0.0635 0.04763,-0.07937 -0.137582,-0.08996 -0.06614,-0.129646 0.370415,-0.224895 0.216957,-0.648226 0.198437,-1.187975 l 0.198436,-0.06615 c 0.330728,-0.584727 0.06085,-0.547686 -0.529164,-0.529165 0.04498,0.664102 0.140228,0.476248 -0.394228,0.59531 -0.346603,-0.502706 -0.478895,-0.59531 -1.12183,-0.59531 -0.02646,0.05556 -0.07938,0.253999 -0.132291,0.330728 0.02381,0.03969 0.187853,0.171978 0.198437,0.198437 -0.03704,0.02381 0,0.280457 0,0.330728 -0.185208,0.03439 -0.261937,0.0026 -0.396874,0.0635 -0.0979,-0.373062 -0.169333,-0.941914 -0.330728,-1.251475 0.193145,-0.156104 0.320145,-0.254 0.463019,-0.46302 -0.05556,-0.08996 -0.04498,-0.238124 -0.06614,-0.328082 -0.04498,-0.01058 -0.338666,-0.04763 -0.264583,0 -0.201082,0.105833 -0.211666,0.01588 -0.330728,0.195791 -0.0291,0.04233 -0.126999,0.354541 -0.129645,0.396874 -0.07673,-0.01852 -0.261937,-0.06879 -0.264583,-0.06615 -0.03969,-0.05292 -0.07937,-0.164041 -0.132291,-0.198437 -0.07144,0.04763 -0.108479,-0.11377 -0.132291,-0.132291 0.492123,-0.275166 0.505352,-0.187853 0.396874,-0.724956 -0.08467,-0.01323 -0.09525,-0.119062 -0.132292,-0.132291 -0.08202,-0.0291 -0.309561,0.05292 -0.264582,0.06615 H 36.16293 c -0.0979,0.03439 -0.08731,0.29104 -0.198437,0.330728 -0.07144,0.02117 -0.195791,-0.03704 -0.261937,0 -0.08202,-0.306916 -0.201082,-0.756706 -0.463019,-0.857247 -0.01852,-0.0079 -0.0344,-0.0079 -0.05292,-0.0079 z m 27.564201,3.172344 c -0.0556,0.08467 -0.23019,0.156103 -0.26459,0.264582 -0.003,0.0053 0.0476,0.190499 0.0661,0.264582 -0.0714,0.01323 -0.10583,0.121708 -0.13229,0.132292 -0.17197,0.05821 -0.39952,0.04233 -0.52916,0.06614 -0.0476,0.613832 -0.2249,0.894289 -0.19579,1.383766 -0.26458,-0.492123 -0.44979,-0.452436 -0.85725,-0.132291 -0.0635,-0.07673 -0.11377,-0.280457 -0.19844,-0.328082 -0.21431,-0.119062 -1.15622,-0.05821 -1.5187,-0.132291 -0.0159,0.07144 -0.12435,0.103187 -0.13229,0.132291 -0.0847,0.24077 0,0.664102 0,0.923393 -0.0106,0.0026 -0.13229,0.06614 -0.13229,0.06614 -0.045,-0.100541 -0.12171,-0.132291 -0.19579,-0.198437 0.16933,-0.566206 0.0185,-1.320266 -0.66146,-0.857247 -0.0847,0.05556 -0.0582,0.261937 -0.13229,0.330728 -0.0635,0.05821 -0.25929,0.100542 -0.32808,0.129646 0.0476,0.185208 -0.0185,0.309561 0.0662,0.463019 0.127,0.232833 0.69849,0.198437 0.7911,0.463019 0.0397,0.108479 -0.0423,0.214312 0,0.328083 -0.0238,0 -0.18256,-0.01323 -0.19844,0 -0.20637,-0.187854 -0.28046,-0.306916 -0.39423,-0.592665 -0.22225,-0.03175 -0.59001,0.01323 -0.85989,-0.06615 -0.0212,-0.0079 -0.1561,-0.193145 -0.19579,-0.198437 -0.24871,-0.03969 -0.33602,0.156104 -0.59531,0.06615 -0.0291,-0.01058 -0.0635,-0.119062 -0.13229,-0.132291 0.3466,-0.198437 0.3175,-0.164041 0.26458,-0.65881 l -0.19844,-0.06615 c -0.0556,0.07673 -0.15081,0.0635 -0.19843,0.132291 -0.037,0.05556 -0.0185,0.291041 -0.0635,0.328082 -0.15875,0.124354 -0.39158,-0.02646 -0.52917,0.198437 -0.0582,0.0926 -0.17198,0.624415 -0.19843,0.724956 -1.27529,-0.373061 -0.80169,0.590019 -1.58221,0.595311 0,0 -0.16404,-0.06085 -0.19843,-0.06615 v -0.132291 c 0.09,-0.03175 0.23547,0 0.33072,0 -0.0318,-0.02117 0.0556,-0.113771 0.0662,-0.132291 -0.0662,-0.05292 -0.10054,-0.0344 -0.13229,-0.132292 -0.26723,-0.04762 -0.66675,-0.166687 -0.85724,-0.132291 -0.12436,0.02117 -0.29369,0.269874 -0.39688,0.330728 -0.24606,0.142875 -0.51329,0.132291 -0.7911,0.264583 -0.0503,0.02117 -0.13494,0.182562 -0.19844,0.198436 -0.22225,0.03969 -0.27516,-0.129645 -0.46302,-0.06614 -0.0212,0.0053 -0.11377,0.171978 -0.12964,0.198437 -0.23813,0.298978 -0.18256,0.444498 0,0.791101 -0.15346,0.03704 -0.29898,0.07144 -0.52917,0.132291 0.0318,-0.07144 -0.0265,-0.193145 0,-0.264582 0.008,-0.02381 0.17463,-0.116416 0.19844,-0.132291 -0.0423,-0.113771 0.0397,-0.219604 0,-0.330728 -0.0159,-0.03704 -0.16933,-0.132292 -0.19844,-0.195791 -0.13493,0.05556 -0.2831,0.04233 -0.39687,0.06614 -0.0291,0.261937 -0.10054,0.72231 -0.12965,0.989539 -0.20637,0 -0.18785,-0.0291 -0.39687,0 0.0344,0.0926 -0.0344,0.232832 0,0.328082 0.0344,0.103187 0.35719,0.203728 0.46302,0.264582 -0.003,0.01058 -0.0265,0.36777 -0.0662,0.264583 -0.0423,0.06614 0.0265,0.121708 0,0.195791 -0.0159,0.03704 -0.16404,0.137583 -0.19844,0.198437 h -0.13229 c -0.0979,-0.209021 -0.14287,-0.365124 -0.26458,-0.526519 -0.29633,-0.394228 -0.24342,-0.161396 -0.72496,-0.330729 -0.0212,-0.0079 -0.11377,-0.190499 -0.13229,-0.198436 -0.11377,-0.03969 -0.2196,0.03969 -0.33073,0 -0.0344,0.07144 -0.18256,0.148166 -0.19579,0.198436 -0.0635,0.1905 0.0132,0.383645 -0.0661,0.529165 -0.13229,0.227541 -0.44714,0.137583 -0.66145,0.261937 -0.25665,0.148166 -0.39158,0.727602 -0.46038,1.055684 -0.52652,-0.246062 -0.20372,-0.246062 -0.72495,0 0.0212,0.11377 -0.0344,0.150812 -0.0661,0.264582 0.27252,0.195791 0.28045,0.214312 0.59266,0.264583 -0.0238,0.0079 -0.0132,0.24077 -0.0661,0.261936 -0.0767,0.0344 -0.24341,0 -0.33073,0 -0.037,0.07673 -0.18256,0.195791 -0.19579,0.264583 -0.0635,0.267228 0.11642,0.539748 0.13229,0.724956 0.008,0.132291 -0.0741,0.195791 -0.0661,0.264582 h -0.1323 c -0.13758,-0.04763 -0.25929,-0.423332 -0.39687,-0.460373 -0.21167,-0.0635 -0.23283,0.07144 -0.39423,0.06614 -0.16933,0.568853 -0.21431,0.523874 0.19579,0.857247 -0.13229,0.119063 0.0291,0.859893 0.0661,1.12183 -0.0979,-0.0979 -0.22754,-0.169333 -0.32808,-0.264582 0.13494,0 -0.36248,-0.05556 -0.19844,0 -0.0767,0.0635 -0.1905,0 -0.26458,0.06615 v 0.132291 c -0.20637,0.592665 0.18521,0.664102 0.39687,1.187976 -0.0238,0.01852 0.0106,0.166687 0,0.195791 -0.0344,0.08202 -0.35189,0.174624 -0.39687,0.264582 -0.0318,0.06085 0.0106,0.195791 0,0.264582 -0.0132,0.06085 -0.19314,0.309562 -0.19844,0.330729 -0.0318,0.124353 0.0291,0.267228 0,0.394227 0.11907,0.103187 0.37307,0.267229 0.46302,0.396874 0.0714,0.105833 0.045,0.243416 0.13229,0.328082 0.0926,0.0926 0.24871,0.08996 0.32809,0.198437 0.19579,0.267227 0.36512,0.952497 0.46302,1.320267 0.0979,0.0212 0.23283,0.005 0.33072,0.0662 -0.0291,0.0238 -0.0476,0.16933 -0.0662,0.19844 -0.0635,0.0847 -0.2831,0.11112 -0.33072,0.19579 -0.11907,0.20373 0.0238,0.71966 0,1.05568 0.1217,0.0503 0.0318,0.005 0.0662,0.13229 0.26458,0.008 0.4101,0.045 0.72495,0 -0.0291,0.0714 0.0185,0.18786 0,0.26458 -0.0582,0.20903 -0.44185,0.35984 -0.19843,0.72496 0.037,0.0529 0.24606,0.0714 0.26458,0.13229 0.0926,0.31486 -0.22225,0.48948 0.0661,0.65881 0.0794,0.0476 0.36512,0.11377 0.46037,0.13229 -0.0265,0.23548 -0.13494,0.54769 0,0.79375 0.0238,0.0397 0.18785,0.0873 0.19844,0.12965 0.0423,0.1561 -0.0609,0.381 0,0.52916 0.0159,0.037 0.0979,0.0318 0.13229,0.0662 0.17727,0.15611 0.34925,0.13229 0.52916,0.26458 0.0635,0.0476 0.0185,0.11907 0.0662,0.1958 0.25665,0.41804 0.60854,0.1852 0.9234,0 -0.037,0.46037 -0.0556,0.63235 -0.13229,1.05568 0.0476,0.0132 0.39422,0.0979 0.32808,0.0661 0.18256,-0.11906 0.39423,-0.0767 0.46302,-0.33073 0.0159,-0.0688 -0.0344,-0.20373 0,-0.26193 0.0344,-0.0635 0.23812,-0.0265 0.26458,-0.0662 0.0238,0.0529 -0.0159,0.14287 0,0.19843 0.0106,0.0397 0.1905,0.17727 0.19579,0.19844 0.0238,0.10319 -0.0873,0.37835 -0.0635,0.39423 -0.0423,0.0132 -0.12435,0.11112 -0.13229,0.13229 0.0106,0.0106 0,0.17991 0,0.19844 0.32544,0.14287 0.41275,0.1852 0.92339,0.13229 0,0.037 -0.0265,0.3122 0,0.32808 -0.0529,0.0794 -0.18785,0.13229 -0.26458,0.19844 0.0212,0.0609 0,0.19843 0,0.26458 0.0953,0.037 0.0873,0.10848 0.13229,0.19843 0.35983,-0.0688 0.38365,-0.0635 0.59267,-0.19843 0.0635,-0.0423 0.28839,-0.13759 0.33072,-0.19844 0.11642,-0.16933 0.0265,-0.36248 0.19844,-0.46302 0.082,-0.0476 0.23283,0.0265 0.33073,0 l 0.12964,-0.12964 c 0.34396,-0.082 0.21961,0.0265 0.46302,0.0661 -0.0344,0.10583 0,0.28045 0,0.39422 -0.18256,0.0661 -0.3757,0.13494 -0.52652,0.19844 0.0106,0.10848 0.0635,0.46038 0.0635,0.46038 0.10319,0.0159 0.20902,0.10318 0.39688,0.0661 0.09,-0.0185 0.24077,-0.20902 0.33073,-0.26194 0.4101,-0.26194 0.64558,-0.10319 1.12182,-0.26458 0.0265,-0.0106 0.0582,-0.11907 0.12965,-0.13229 -0.0291,-0.14552 0.0609,-0.33073 0,-0.46038 h -0.0635 c -0.12171,0 -0.24342,-0.15081 -0.33073,-0.19843 0,-0.12171 0.0265,-0.27782 0,-0.39688 0.0582,-0.0503 0.0953,-0.19844 0.19844,-0.19844 h 0.0661 c 0.12171,0.11907 0.28046,0.41275 0.46037,0.46302 0.0741,0.0185 0.1905,-0.0291 0.26459,0 -0.0794,0.24077 -0.0529,0.33338 -0.1323,0.59267 0.23813,0.10319 0.63236,0.32543 0.98954,0.13229 0.32015,-0.17462 0.0952,-0.43127 0.0661,-0.59266 -0.0318,-0.17198 0.0741,-0.24607 0.0661,-0.33073 0.43921,-0.0265 0.81227,-0.0953 1.25412,-0.26459 0.0185,-0.0106 0.045,-0.12699 0.0635,-0.12964 h 0.13229 c 0.0979,-0.1614 -0.008,-0.381 0.0661,-0.59531 0.0476,-0.14288 0.26988,-0.21696 0.33073,-0.33073 0.0688,-0.13229 0.008,-0.20108 0.0661,-0.32808 0.28311,0.0106 0.889,0.037 1.18798,-0.13229 0.13229,-0.0794 0.20373,-0.30692 0.32808,-0.39688 0.0582,-0.045 0.12964,0.0238 0.19844,0 0.42862,-0.16668 0.13758,-0.59531 0,-0.7911 0.23018,-0.0609 0.65616,-0.127 0.7276,-0.33073 0.0344,-0.10583 -0.0529,-0.30162 0,-0.39422 h 0.0661 c 0.26193,-0.13494 0.44979,-0.39952 0.65881,-0.59531 0.0661,0.0318 0.18785,-0.0265 0.26193,0 0.1614,0.0556 0.19844,0.39687 0.59531,0.26458 0.0476,-0.0159 0.12436,-0.16404 0.19844,-0.19844 -0.0635,-0.10054 -0.005,-0.24341 -0.0661,-0.33073 -0.0318,-0.0397 -0.36512,-0.18256 -0.39687,-0.26193 -0.0291,-0.0714 0.0423,-0.13494 0,-0.19844 0.62177,-0.16404 0.73818,-0.13494 0.65881,-0.85725 0.22489,-0.14023 0.4392,-0.17727 0.66145,-0.33073 0.0688,-0.0476 0.0529,-0.14552 0.1323,-0.19843 -0.0476,-0.30692 -0.127,-0.71967 0.13229,-0.85725 0.48154,-0.25664 0.63235,0.15346 0.85724,0.19844 0.27517,0.0529 0.30956,-0.10319 0.46038,-0.13229 -0.0159,-0.15875 0.082,-0.10584 0.0661,-0.26194 -0.005,-0.0635 -0.14552,-0.21167 -0.13229,-0.33073 0.003,-0.0318 0.19314,-0.18521 0.19843,-0.19844 0.0291,-0.07937 -0.037,-0.126995 0,-0.198433 -0.10583,-0.04762 -0.2831,-0.134937 -0.39687,-0.198436 0.19314,-0.415395 0.16933,-0.558269 0,-0.989539 0.21696,0.119062 0.42598,0.232833 0.66145,0.330728 -0.0159,0.0026 0.33073,0.0053 0.39423,0 0.0503,-0.11377 0.25136,-0.738185 0.33073,-0.791101 0.16933,-0.121708 0.41539,-0.02381 0.59267,-0.132291 0.14022,-0.08731 0.0582,-0.373062 0,-0.330728 0.0291,-0.105833 -0.0344,-0.227541 0,-0.328083 0.0106,-0.0291 0.11906,-0.0635 0.13229,-0.132291 0.52122,0.03969 0.59795,0 0.92339,-0.132291 0.0529,-0.473603 0.0556,-0.672039 -0.26194,-0.923393 -0.0344,-0.02646 -0.18521,-0.09525 -0.19843,-0.132291 -0.0503,-0.142875 0.0238,-0.312207 0,-0.463019 0.10583,-0.0291 0.10583,0.05556 0.13229,-0.06615 0.10848,0.04762 0.2196,-0.04763 0.32808,0 0.0847,0.03704 0.0556,0.280457 0.13229,0.330728 0.38894,0.264583 0.88106,0.08202 0.98954,-0.264582 0.0794,-0.253999 -0.0344,-0.248708 -0.0661,-0.460374 h -0.12965 l 0.0635,-0.529165 c -0.23283,0.01588 -0.26987,0.01058 -0.39423,0 -0.0423,-0.11377 0.0397,-0.216957 0,-0.328082 -0.0159,-0.04498 -0.17197,-0.0926 -0.19843,-0.132291 -0.0688,-0.113771 -0.008,-0.203729 -0.0661,-0.330728 0.0741,-0.03969 0.11906,-0.179916 0.19843,-0.198437 0.0423,-0.01058 0.15346,0.0291 0.19844,0 0.12171,-0.08731 0.1905,-0.412749 0.32808,-0.460373 0.14817,-0.05556 0.43392,0.0053 0.59531,0 0.10319,-0.357187 0.22225,-0.642936 0.33073,-0.923393 -0.0503,-0.0344 -0.0714,-0.230187 -0.13229,-0.264583 -0.12965,-0.07408 -0.29898,-0.06879 -0.39687,-0.132291 -0.38629,-0.246061 0.43391,-0.439207 0.59266,-0.592664 0.0635,-0.0635 0,-0.203729 0.0688,-0.264583 -0.0741,-0.01588 -0.89958,-0.182562 -0.92604,-0.198437 -0.0344,-0.02117 -0.22489,-0.515935 -0.26193,-0.592664 0.32808,-0.108479 0.37041,-0.177271 0.59266,-0.330728 -0.0979,-0.08731 -0.09,-0.248708 -0.19844,-0.328083 -0.0926,-0.07144 -0.15081,-0.03439 -0.26458,-0.06614 0.003,-0.01323 -0.0476,-0.243416 -0.0661,-0.330728 0.20638,-0.0979 0.35454,-0.164041 0.52917,-0.264583 -0.0344,-0.09525 0.0318,-0.235478 0,-0.330728 -0.0159,-0.04233 -0.17198,-0.0926 -0.19844,-0.129645 -0.0873,-0.142875 -0.14287,-0.396874 -0.19844,-0.529165 -0.0344,0.108479 -0.0661,-0.198437 -0.0661,-0.198437 0.28311,-0.164041 0.0767,-0.550331 -0.26193,-0.526519 l -0.13229,0.132291 c -0.127,0.06085 -0.21961,0.08202 -0.33073,0.132291 -0.003,0.01058 -0.008,0.428624 0,0.394228 0.0397,0.08202 0.16668,0.134937 0.19843,0.198437 0.0662,0.140229 0.0238,0.27252 0.0662,0.396874 -0.14552,-0.129646 -0.26193,-0.198437 -0.39687,-0.330728 -0.11377,0.03969 -0.21696,-0.04233 -0.33073,0 -0.082,0.02646 -0.18256,0.301624 -0.26193,0.330728 -0.11378,0.03704 -0.21961,-0.04233 -0.33073,0 l -0.0661,-0.132291 c -0.0318,0.100541 -0.0662,-0.251354 -0.0662,-0.264583 0.0159,-0.01323 0.19314,-0.116416 0.19843,-0.132291 0.0476,-0.166687 -0.0794,-0.251353 -0.0661,-0.330728 h -0.13229 c -0.0873,0.0291 -0.17198,0.33602 -0.26193,0.396873 -0.045,0.02911 -0.15346,-0.01323 -0.19844,0 -0.045,0.01058 -0.21696,0.182562 -0.26458,0.198437 -0.39688,0.124354 -0.75671,0.132292 -1.25412,0.132292 -0.11642,0.243415 -0.10848,0.235478 -0.19844,0.592664 -0.008,0 -0.19579,-0.0026 -0.19579,0 -0.0159,-0.158749 -0.0662,-0.470957 -0.0662,-0.724956 0.14817,-0.05292 0.20373,-0.03175 0.39423,-0.06614 -0.0212,-0.296333 -0.0212,-0.650873 -0.13229,-0.989539 0.3122,0.05821 0.34395,0.0979 0.66145,0 l 0.0662,-0.132291 c 0.11377,-0.04498 0.33867,0 0.46037,0 -0.0106,-0.06085 0.0926,-0.129645 0.0661,-0.264582 -0.0503,-0.275166 -0.43127,-0.526519 -0.59266,-0.724956 -0.0714,0.0979 0.003,0.164041 -0.0661,0.264582 -0.0529,0.07144 -0.127,0.01058 -0.19844,0.06615 -0.0767,0.05556 -0.13493,0.248707 -0.19843,0.328082 -0.0106,-0.01852 -0.17992,-0.04763 -0.19844,-0.06614 -0.0556,-0.05556 -0.0397,-0.177271 -0.0635,-0.261937 -0.0714,-0.01588 -0.10583,-0.124354 -0.13229,-0.132291 -0.24606,-0.08467 -0.381,0.08731 -0.52917,0.132291 l -0.0661,-0.06615 c 0.0238,-0.396873 -0.0212,-0.447144 -0.0661,-0.727601 -0.0503,0 -0.2196,0.0291 -0.26193,0 z"
       fill="#f56600"
       id="path1"
       style="stroke-width:0.264582" /><g
       id="g2"
       transform="translate(2.6458334,12.863036)"><text
         xml:space="preserve"
         style="font-style:normal;font-variant:normal;font-weight:normal;font-stretch:normal;font-size:29.5138px;line-height:54.2489px;font-family:'Times New Roman';-inkscape-font-specification:'Times New Roman, ';fill:#1a1a1a;stroke:#000000;stroke-width:2.6;stroke-miterlimit:4.3;stroke-dasharray:none;paint-order:markers stroke fill"
         x="87.114655"
         y="26.692276"
         id="text1"
         transform="scale(0.76499204,1.3072031)"><tspan
           id="tspan1"
           style="font-style:normal;font-variant:normal;font-weight:normal;font-stretch:normal;font-size:29.5138px;font-family:'Bookman Old Style';-inkscape-font-specification:'Bookman Old Style';fill:#522d80;fill-opacity:1;stroke:#522d80;stroke-width:2.6;stroke-dasharray:none;stroke-opacity:1"
           x="87.114655"
           y="26.692276"
           sodipodi:role="line">ECE 4420/6420</tspan></text><text
         xml:space="preserve"
         style="font-style:normal;font-variant:normal;font-weight:normal;font-stretch:normal;font-size:22.5778px;line-height:41.4999px;font-family:'Bookman Old Style';-inkscape-font-specification:'Bookman Old Style';fill:#522d80;fill-opacity:1;stroke:#000000;stroke-width:0.132292;stroke-miterlimit:4.3;paint-order:markers stroke fill"
         x="129.81145"
         y="62.019455"
         id="text2"><tspan
           sodipodi:role="line"
           id="tspan2"
           style="stroke-width:0.132292"
           x="129.81145"
           y="62.019455">${year}</tspan></text></g></g></svg>
